<svg xmlns="http://www.w3.org/2000/svg" version="1.1" xmlns:xlink="http://www.w3.org/1999/xlink" xmlns:svgjs="http://svgjs.dev/svgjs" width="1000" height="623" viewBox="0 0 1000 623"><g transform="matrix(1,0,0,1,-0.6060606060606233,0.2522267206477409)"><svg viewBox="0 0 396 247" data-background-color="#f9e17e" preserveAspectRatio="xMidYMid meet" height="623" width="1000" xmlns="http://www.w3.org/2000/svg" xmlns:xlink="http://www.w3.org/1999/xlink"><g id="tight-bounds" transform="matrix(1,0,0,1,0.2400000000000091,-0.09999999999999432)"><svg viewBox="0 0 395.52 247.2" height="247.2" width="395.52"><g><svg></svg></g><g><svg viewBox="0 0 395.52 247.2" height="247.2" width="395.52"><g transform="matrix(1,0,0,1,39.55199999999999,90.43642048065084)"><svg viewBox="0 0 316.416 66.32715903869831" height="66.32715903869831" width="316.416"><g><svg viewBox="0 0 316.416 66.32715903869831" height="66.32715903869831" width="316.416"><g><svg viewBox="0 0 316.416 66.32715903869831" height="66.32715903869831" width="316.416"><g><svg viewBox="0 0 316.416 66.32715903869831" height="66.32715903869831" width="316.416"><g id="textblocktransform"><svg viewBox="0 0 316.416 66.32715903869831" height="66.32715903869831" width="316.416" id="textblock"><g><svg viewBox="0 0 316.416 42.73198666172655" height="42.73198666172655" width="316.416"><g transform="matrix(1,0,0,1,0,0)"><svg width="316.416" viewBox="2.4 -35.9 269.87 36.449999999999996" height="42.73198666172655" data-palette-color="#454545"><path d="M28-5.95L28-1.7Q24.9 0.4 19.5 0.4L19.5 0.4Q11.9 0.4 7.15-4.28 2.4-8.95 2.4-17L2.4-17Q2.4-24.6 7.23-29.38 12.05-34.15 19.35-34.15L19.35-34.15Q24.6-34.15 27.9-32.35L27.9-32.35 27.9-28.2Q25.7-29.35 23.95-29.85 22.2-30.35 19.35-30.35L19.35-30.35Q13.9-30.35 10.28-26.65 6.65-22.95 6.65-17L6.65-17Q6.65-10.8 10.25-7.1 13.85-3.4 19.8-3.4L19.8-3.4Q24.6-3.4 28-5.95L28-5.95ZM56.05-12.6L56.05-12.6Q56.05-6.95 52.85-3.25 49.65 0.45 44.05 0.45L44.05 0.45Q38.6 0.45 35.42-3.23 32.25-6.9 32.25-12.5L32.25-12.5Q32.25-18.15 35.52-21.93 38.8-25.7 44.05-25.7L44.05-25.7Q49.8-25.7 52.92-22 56.05-18.3 56.05-12.6ZM36.35-12.55L36.35-12.55Q36.35-8.6 38.45-5.83 40.55-3.05 44.05-3.05L44.05-3.05Q47.85-3.05 49.9-5.78 51.95-8.5 51.95-12.55L51.95-12.55Q51.95-16.75 50-19.48 48.05-22.2 44.05-22.2L44.05-22.2Q40.45-22.2 38.4-19.4 36.35-16.6 36.35-12.55ZM65.95-3.75L65.95 0 62 0 62-35.35 65.95-35.35 65.95-21.55Q68.7-25.75 73.65-25.75L73.65-25.75Q78.45-25.75 81.5-22.08 84.55-18.4 84.55-12.45L84.55-12.45Q84.55-7.1 81.67-3.35 78.8 0.4 73.75 0.4L73.75 0.4Q68.65 0.4 65.95-3.75L65.95-3.75ZM65.95-12.85L65.95-12.85Q65.95-7.8 68.12-5.5 70.3-3.2 73.4-3.2L73.4-3.2Q76.45-3.2 78.45-5.75 80.45-8.3 80.45-12.4L80.45-12.4Q80.45-17.1 78.37-19.63 76.3-22.15 73.15-22.15L73.15-22.15Q70.45-22.15 68.2-19.9 65.95-17.65 65.95-12.85ZM94.24-13.85L94.24 0 90.29 0 90.34-25.35 94.24-25.35 94.24-20.9Q96.24-25.6 101.14-25.6L101.14-25.6Q102.04-25.6 102.54-25.5L102.54-25.5 102.54-21.6Q101.49-21.95 100.39-21.95L100.39-21.95Q97.74-21.95 95.99-19.5 94.24-17.05 94.24-13.85L94.24-13.85ZM128.94-12.6L128.94-12.6Q128.94-6.95 125.74-3.25 122.54 0.45 116.94 0.45L116.94 0.45Q111.49 0.45 108.32-3.23 105.14-6.9 105.14-12.5L105.14-12.5Q105.14-18.15 108.42-21.93 111.69-25.7 116.94-25.7L116.94-25.7Q122.69-25.7 125.82-22 128.94-18.3 128.94-12.6ZM109.24-12.55L109.24-12.55Q109.24-8.6 111.34-5.83 113.44-3.05 116.94-3.05L116.94-3.05Q120.74-3.05 122.79-5.78 124.84-8.5 124.84-12.55L124.84-12.55Q124.84-16.75 122.89-19.48 120.94-22.2 116.94-22.2L116.94-22.2Q113.34-22.2 111.29-19.4 109.24-16.6 109.24-12.55ZM146.49-25.35L146.49-22.15 140.89-22.15 140.89 0 136.94 0 136.94-22.15 132.59-22.15 132.59-25.35 136.94-25.35 136.94-27.7Q136.94-31.4 138.91-33.55 140.89-35.7 144.39-35.7L144.39-35.7Q145.59-35.7 146.84-35.35L146.84-35.35 146.84-31.75Q145.64-32.15 144.54-32.15L144.54-32.15Q142.94-32.15 141.91-31.05 140.89-29.95 140.89-27.65L140.89-27.65 140.89-25.35 146.49-25.35ZM158.94-3.05L158.94-3.05Q161.63-3.05 163.23-4.58 164.84-6.1 164.84-8.45L164.84-8.45 164.84-11.7 160.44-11.7Q157.23-11.7 155.63-10.45 154.03-9.2 154.03-7.3 154.03-5.4 155.28-4.23 156.53-3.05 158.94-3.05ZM164.88 0L164.88-3Q162.94 0.25 157.78 0.25L157.78 0.25Q154.23 0.25 152.06-1.85 149.88-3.95 149.88-7.15L149.88-7.15Q149.88-10.8 152.66-12.83 155.44-14.85 160.23-14.85L160.23-14.85 164.84-14.85 164.84-16.15Q164.84-19.15 163.48-20.68 162.13-22.2 158.94-22.2L158.94-22.2Q154.88-22.2 151.73-20.05L151.73-20.05 151.73-24Q154.59-25.75 159.23-25.75L159.23-25.75Q168.78-25.75 168.78-16.05L168.78-16.05 168.78 0 164.88 0ZM193.23-4.65L193.23-0.9Q190.83 0.55 187.33 0.55L187.33 0.55Q181.33 0.55 177.81-3.28 174.28-7.1 174.28-12.6L174.28-12.6Q174.28-18 177.81-21.9 181.33-25.8 187.43-25.8L187.43-25.8Q190.68-25.8 193.23-24.4L193.23-24.4 193.23-20.65Q190.93-22.2 187.83-22.2L187.83-22.2Q183.53-22.2 180.96-19.43 178.38-16.65 178.38-12.55L178.38-12.55Q178.43-8.45 180.88-5.73 183.33-3 187.83-3L187.83-3Q190.73-3 193.23-4.65L193.23-4.65ZM203.48-25.35L203.48 0 199.53 0 199.53-25.35 203.48-25.35ZM203.33-35.15Q204.08-34.4 204.08-33.3 204.08-32.2 203.33-31.48 202.58-30.75 201.48-30.75 200.38-30.75 199.66-31.48 198.93-32.2 198.93-33.3 198.93-34.4 199.66-35.15 200.38-35.9 201.48-35.9 202.58-35.9 203.33-35.15ZM215.13-35.35L215.13 0 211.18 0 211.18-35.35 215.13-35.35ZM225.23-4.65Q226.08-3.8 226.08-2.55 226.08-1.3 225.23-0.45 224.38 0.4 223.13 0.4 221.88 0.4 221.03-0.45 220.18-1.3 220.18-2.55 220.18-3.8 221.03-4.65 221.88-5.5 223.13-5.5 224.38-5.5 225.23-4.65ZM249.42-5L249.42-1.3Q246.47 0.25 242.22 0.25L242.22 0.25Q236.47 0.25 232.95-3.28 229.42-6.8 229.42-12.6L229.42-12.6Q229.42-18.65 232.57-22.15 235.72-25.65 240.67-25.65L240.67-25.65Q245.42-25.65 248.22-22.6 251.02-19.55 251.02-13.95L251.02-13.95Q251.02-12.35 250.77-11L250.77-11 233.47-11Q233.92-7.25 236.32-5.25 238.72-3.25 242.62-3.25L242.62-3.25Q246.87-3.25 249.42-5L249.42-5ZM240.67-22.2L240.67-22.2Q237.82-22.2 235.82-20.15 233.82-18.1 233.47-14.3L233.47-14.3 247.07-14.3 247.07-15.3Q247.07-18.45 245.37-20.33 243.67-22.2 240.67-22.2ZM272.27-6.75L272.27-6.75Q272.27-3.5 270-1.6 267.72 0.3 263.77 0.3L263.77 0.3Q259.17 0.3 256.32-1.25L256.32-1.25 256.32-5.1Q259.67-3.1 263.52-3.1L263.52-3.1Q265.82-3.1 267.02-4 268.22-4.9 268.22-6.45L268.22-6.45Q268.22-8.25 266.9-9.25 265.57-10.25 262.47-11.5L262.47-11.5Q259.62-12.6 257.9-14.25 256.17-15.9 256.17-18.7L256.17-18.7Q256.17-21.85 258.55-23.73 260.92-25.6 264.47-25.6L264.47-25.6Q268.42-25.6 270.82-24.5L270.82-24.5 270.82-20.75Q268.52-22.15 264.52-22.15L264.52-22.15Q262.52-22.15 261.35-21.23 260.17-20.3 260.17-18.85L260.17-18.85Q260.17-17.95 260.52-17.28 260.87-16.6 261.9-15.95 262.92-15.3 263.4-15.08 263.87-14.85 265.47-14.15L265.47-14.15Q268.67-12.85 270.47-11.2 272.27-9.55 272.27-6.75Z" opacity="1" transform="matrix(1,0,0,1,0,0)" fill="#454545" class="undefined-text-0" data-fill-palette-color="primary" id="text-0"></path></svg></g></svg></g><g transform="matrix(1,0,0,1,0,52.81998314488031)"><svg viewBox="0 0 316.416 13.507175893818006" height="13.507175893818006" width="316.416"><g transform="matrix(1,0,0,1,0,0)"><svg width="316.416" viewBox="1.8 -35 836.3000000000001 35.7" height="13.507175893818006" data-palette-color="#454545"><path d="M38.25-6.25L40.8-2.9Q37.65 0.7 33.5 0.7L33.5 0.7Q29.15 0.7 26.18-2.45 23.2-5.6 21.35-12.15L21.35-12.15 20.55-14.65 13.4-14.65 13.4-4.15 19.7-4.15 19.7 0 1.8 0 1.8-4.1 8.25-4.1 8.25-30.15 1.8-30.15 1.8-34.3 21.7-34.3Q27.55-34.3 30.95-31.65 34.35-29 34.35-24.45L34.35-24.45Q34.35-20.7 31.93-18.13 29.5-15.55 25.1-14.9L25.1-14.9 26-12.45Q27.55-8.05 29.45-6.05 31.35-4.05 33.75-4.05L33.75-4.05Q35.25-4.05 36.3-4.65 37.35-5.25 38.25-6.25L38.25-6.25ZM13.4-30.15L13.4-18.55 21.85-18.55Q25.05-18.55 27.15-20.13 29.25-21.7 29.25-24.45L29.25-24.45Q29.25-27.1 27.18-28.63 25.1-30.15 21.85-30.15L21.85-30.15 13.4-30.15ZM75.45-23.3L70.85-23.3 70.85-30.15 53.05-30.15 53.05-19.2 60.95-19.2 60.95-23.85 64.95-23.85 64.95-10.75 60.95-10.75 60.95-15.4 53.05-15.4 53.05-4.15 70.85-4.15 70.85-11 75.45-11 75.45 0 41.55 0 41.55-4.15 47.95-4.15 47.95-30.15 41.55-30.15 41.55-34.3 75.45-34.3 75.45-23.3ZM111.3-10.15L114.65-7.35Q112.2-3.75 108.43-1.55 104.65 0.65 99.5 0.65L99.5 0.65Q94.6 0.65 90.53-1.63 86.45-3.9 84.1-7.95 81.75-12 81.75-17.1L81.75-17.1Q81.75-22.35 84.05-26.43 86.35-30.5 90.2-32.75 94.05-35 98.5-35L98.5-35Q102.1-35 104.88-33.7 107.65-32.4 109.55-30.05L109.55-30.05 109.6-34.3 114.25-34.3 114.25-23.15 110.95-22.85Q107.35-30.85 99.25-30.85L99.25-30.85Q96-30.85 93.23-29.18 90.45-27.5 88.78-24.38 87.1-21.25 87.1-17.15L87.1-17.15Q87.1-13.25 88.75-10.18 90.4-7.1 93.23-5.35 96.05-3.6 99.5-3.6L99.5-3.6Q103.55-3.6 106.38-5.35 109.2-7.1 111.3-10.15L111.3-10.15ZM160.4-34.3L160.4-30.15 153.95-30.15 153.95-13.25Q153.95-9.3 152-6.13 150.05-2.95 146.55-1.15 143.05 0.65 138.55 0.65L138.55 0.65Q133.95 0.65 130.45-1.15 126.95-2.95 125.05-6.1 123.15-9.25 123.15-13.25L123.15-13.25 123.15-30.15 116.7-30.15 116.7-34.3 134.4-34.3 134.4-30.15 128.35-30.15 128.3-13.4Q128.3-10.6 129.6-8.38 130.9-6.15 133.23-4.9 135.55-3.65 138.55-3.65L138.55-3.65Q141.5-3.65 143.85-4.9 146.2-6.15 147.5-8.4 148.8-10.65 148.8-13.45L148.8-13.45 148.75-30.15 142.65-30.15 142.65-34.3 160.4-34.3ZM182-34.3Q186-34.3 189.03-33.02 192.05-31.75 193.7-29.35 195.35-26.95 195.35-23.65L195.35-23.65Q195.35-18.6 191.75-15.68 188.15-12.75 182.05-12.75L182.05-12.75 174.05-12.75 174.05-4.15 180.9-4.15 180.9 0 162.5 0 162.5-4.15 168.95-4.15 168.95-30.15 162.5-30.15 162.5-34.3 182-34.3ZM181.8-16.9Q185.5-16.9 187.88-18.48 190.25-20.05 190.25-23.7L190.25-23.7Q190.25-27.05 187.85-28.6 185.45-30.15 181.7-30.15L181.7-30.15 174.05-30.15 174.05-16.95 181.8-16.9ZM233.1-23.3L228.5-23.3 228.5-30.15 210.7-30.15 210.7-19.2 218.6-19.2 218.6-23.85 222.6-23.85 222.6-10.75 218.6-10.75 218.6-15.4 210.7-15.4 210.7-4.15 228.5-4.15 228.5-11 233.1-11 233.1 0 199.2 0 199.2-4.15 205.6-4.15 205.6-30.15 199.2-30.15 199.2-34.3 233.1-34.3 233.1-23.3ZM275.1-6.25L277.65-2.9Q274.5 0.7 270.35 0.7L270.35 0.7Q266 0.7 263.03-2.45 260.05-5.6 258.2-12.15L258.2-12.15 257.4-14.65 250.25-14.65 250.25-4.15 256.55-4.15 256.55 0 238.65 0 238.65-4.1 245.1-4.1 245.1-30.15 238.65-30.15 238.65-34.3 258.55-34.3Q264.4-34.3 267.8-31.65 271.2-29 271.2-24.45L271.2-24.45Q271.2-20.7 268.78-18.13 266.35-15.55 261.95-14.9L261.95-14.9 262.85-12.45Q264.4-8.05 266.3-6.05 268.2-4.05 270.6-4.05L270.6-4.05Q272.1-4.05 273.15-4.65 274.2-5.25 275.1-6.25L275.1-6.25ZM250.25-30.15L250.25-18.55 258.7-18.55Q261.9-18.55 264-20.13 266.1-21.7 266.1-24.45L266.1-24.45Q266.1-27.1 264.03-28.63 261.95-30.15 258.7-30.15L258.7-30.15 250.25-30.15ZM312.65-4.15L318-4.15 318 0 301.65 0 301.65-4.15 307.25-4.15 304.05-12.15 289.25-12.15 286.1-4.15 292.1-4.15 292.1 0 275.85 0 275.85-4.15 281.2-4.15 292.35-30.2 287.2-30.2 287.2-34.3 306.5-34.3 306.5-30.2 301.4-30.2 312.65-4.15ZM290.75-15.9L302.55-15.9 296.85-30.2 296.45-30.2 290.75-15.9ZM349-10.15L352.35-7.35Q349.9-3.75 346.13-1.55 342.35 0.65 337.2 0.65L337.2 0.65Q332.3 0.65 328.23-1.63 324.15-3.9 321.8-7.95 319.45-12 319.45-17.1L319.45-17.1Q319.45-22.35 321.75-26.43 324.05-30.5 327.9-32.75 331.75-35 336.2-35L336.2-35Q339.8-35 342.58-33.7 345.35-32.4 347.25-30.05L347.25-30.05 347.3-34.3 351.95-34.3 351.95-23.15 348.65-22.85Q345.05-30.85 336.95-30.85L336.95-30.85Q333.7-30.85 330.93-29.18 328.15-27.5 326.48-24.38 324.8-21.25 324.8-17.15L324.8-17.15Q324.8-13.25 326.45-10.18 328.1-7.1 330.93-5.35 333.75-3.6 337.2-3.6L337.2-3.6Q341.25-3.6 344.08-5.35 346.9-7.1 349-10.15L349-10.15ZM374.6-30.15L368.1-30.15 368.1-4.15 374.6-4.15 374.6 0 356.5 0 356.5-4.15 362.95-4.15 362.95-30.15 356.5-30.15 356.5-34.3 374.6-34.3 374.6-30.15ZM396.5 0.65Q391.5 0.65 387.43-1.63 383.35-3.9 381.03-7.95 378.7-12 378.7-17.15L378.7-17.15Q378.7-22.35 381.03-26.4 383.35-30.45 387.43-32.73 391.5-35 396.5-35L396.5-35Q401.45-35 405.53-32.73 409.6-30.45 411.93-26.38 414.25-22.3 414.25-17.15L414.25-17.15Q414.25-12 411.93-7.95 409.6-3.9 405.53-1.63 401.45 0.65 396.5 0.65L396.5 0.65ZM396.5-3.65Q400.1-3.65 402.93-5.38 405.75-7.1 407.33-10.18 408.9-13.25 408.9-17.15L408.9-17.15Q408.9-21.1 407.33-24.18 405.75-27.25 402.93-28.98 400.1-30.7 396.5-30.7L396.5-30.7Q392.85-30.7 390-28.98 387.15-27.25 385.6-24.15 384.05-21.05 384.05-17.15L384.05-17.15Q384.05-13.2 385.6-10.13 387.15-7.05 389.98-5.35 392.8-3.65 396.5-3.65L396.5-3.65ZM462.85-34.3L462.85-30.15 456.6-30.15 456.6 0.3 454.05 0.35 430-27 430-4.15 436.15-4.15 436.15 0 418.65 0 418.65-4.15 425.1-4.15 425.1-30.15 418.65-30.15 418.65-34.3 430-34.3 451.8-8.95 451.8-30.15 445.35-30.15 445.35-34.3 462.85-34.3ZM497.1-34.3Q502.45-34.3 506.95-32.38 511.45-30.45 514.13-26.58 516.8-22.7 516.8-17.15L516.8-17.15Q516.8-11.6 514.13-7.73 511.45-3.85 506.95-1.93 502.45 0 497.1 0L497.1 0 480.3 0 480.3-4.15 486.75-4.15 486.75-30.15 480.3-30.15 480.3-34.3 497.1-34.3ZM496.6-4.15Q503-4.15 507.2-7.33 511.4-10.5 511.4-17.15L511.4-17.15Q511.4-23.85 507.2-27 503-30.15 496.6-30.15L496.6-30.15 491.9-30.15 491.9-4.15 496.6-4.15ZM555.05-23.3L550.45-23.3 550.45-30.15 532.65-30.15 532.65-19.2 540.55-19.2 540.55-23.85 544.55-23.85 544.55-10.75 540.55-10.75 540.55-15.4 532.65-15.4 532.65-4.15 550.45-4.15 550.45-11 555.05-11 555.05 0 521.15 0 521.15-4.15 527.55-4.15 527.55-30.15 521.15-30.15 521.15-34.3 555.05-34.3 555.05-23.3ZM593.45-30.15L586.95-30.15 586.95-4.15 593.45-4.15 593.45 0 575.35 0 575.35-4.15 581.8-4.15 581.8-30.15 575.35-30.15 575.35-34.3 593.45-34.3 593.45-30.15ZM642.05-4.15L648.5-4.15 648.5 0 631.05 0 631.05-4.15 637-4.15 637-20.95Q637-23.35 637.6-27.2L637.6-27.2 623.95 0.35 621.35 0.35 607.8-27Q608.25-23.05 608.25-20.95L608.25-20.95 608.25-4.15 614.2-4.15 614.2 0 597 0 597-4.15 603.4-4.15 603.4-30.15 597-30.15 597-34.3 609.1-34.3 622.85-6.85 636.35-34.3 648.45-34.3 648.45-30.15 642.05-30.15 642.05-4.15ZM671.55-34.3Q675.55-34.3 678.58-33.02 681.6-31.75 683.25-29.35 684.9-26.95 684.9-23.65L684.9-23.65Q684.9-18.6 681.3-15.68 677.7-12.75 671.6-12.75L671.6-12.75 663.6-12.75 663.6-4.15 670.45-4.15 670.45 0 652.05 0 652.05-4.15 658.5-4.15 658.5-30.15 652.05-30.15 652.05-34.3 671.55-34.3ZM671.35-16.9Q675.05-16.9 677.42-18.48 679.8-20.05 679.8-23.7L679.8-23.7Q679.8-27.05 677.4-28.6 675-30.15 671.25-30.15L671.25-30.15 663.6-30.15 663.6-16.95 671.35-16.9ZM722.25-4.15L727.6-4.15 727.6 0 711.25 0 711.25-4.15 716.85-4.15 713.65-12.15 698.85-12.15 695.7-4.15 701.7-4.15 701.7 0 685.45 0 685.45-4.15 690.8-4.15 701.95-30.2 696.8-30.2 696.8-34.3 716.1-34.3 716.1-30.2 711-30.2 722.25-4.15ZM700.35-15.9L712.15-15.9 706.45-30.2 706.05-30.2 700.35-15.9ZM746.9-30.85Q743.45-30.85 740.55-29.18 737.65-27.5 735.95-24.4 734.25-21.3 734.25-17.15L734.25-17.15Q734.25-13.15 735.92-10.08 737.6-7 740.52-5.3 743.45-3.6 747.1-3.6L747.1-3.6Q753.4-3.6 757.55-6.85L757.55-6.85 757.55-13.5 746.55-13.5 746.55-17.45 762.25-17.45 762.25-4.7Q759.65-2.3 755.7-0.8 751.75 0.7 747.1 0.7L747.1 0.7Q741.75 0.7 737.63-1.58 733.5-3.85 731.2-7.93 728.9-12 728.9-17.15L728.9-17.15Q728.9-22.25 731.2-26.33 733.5-30.4 737.35-32.7 741.2-35 745.75-35L745.75-35Q749.55-35 752.58-33.68 755.6-32.35 757.7-30.1L757.7-30.1 757.7-34.3 762.25-34.3 762.25-23.65 759-23.4Q757.15-26.75 754.15-28.8 751.15-30.85 746.9-30.85L746.9-30.85ZM786.2 0.65Q781.2 0.65 777.13-1.63 773.05-3.9 770.73-7.95 768.4-12 768.4-17.15L768.4-17.15Q768.4-22.35 770.73-26.4 773.05-30.45 777.13-32.73 781.2-35 786.2-35L786.2-35Q791.15-35 795.23-32.73 799.3-30.45 801.63-26.38 803.95-22.3 803.95-17.15L803.95-17.15Q803.95-12 801.63-7.95 799.3-3.9 795.23-1.63 791.15 0.65 786.2 0.65L786.2 0.65ZM786.2-3.65Q789.8-3.65 792.63-5.38 795.45-7.1 797.02-10.18 798.6-13.25 798.6-17.15L798.6-17.15Q798.6-21.1 797.02-24.18 795.45-27.25 792.63-28.98 789.8-30.7 786.2-30.7L786.2-30.7Q782.55-30.7 779.7-28.98 776.85-27.25 775.3-24.15 773.75-21.05 773.75-17.15L773.75-17.15Q773.75-13.2 775.3-10.13 776.85-7.05 779.68-5.35 782.5-3.65 786.2-3.65L786.2-3.65ZM824.8-19.4Q831.4-17.55 834.75-15.05 838.1-12.55 838.1-8.4L838.1-8.4Q838.1-5.7 836.63-3.63 835.15-1.55 832.55-0.45 829.95 0.65 826.7 0.65L826.7 0.65Q823.15 0.65 819.95-0.85 816.75-2.35 814.05-5.05L814.05-5.05 814.05-0.05 809.5-0.05 809.5-11.6 812.4-11.75Q815.05-7.9 818.85-5.7 822.65-3.5 826.4-3.5L826.4-3.5Q829.2-3.5 830.98-4.7 832.75-5.9 832.75-7.95L832.75-7.95Q832.75-10.2 830.25-11.83 827.75-13.45 821.75-15L821.75-15Q815.5-16.65 812.6-19.33 809.7-22 809.7-25.9L809.7-25.9Q809.7-28.6 811.18-30.68 812.65-32.75 815.15-33.88 817.65-35 820.6-35L820.6-35Q827.55-35 831.85-29.9L831.85-29.9 831.85-34.3 836.4-34.3 836.4-22.9 833.6-22.75Q831.5-26.75 828.45-28.8 825.4-30.85 821.75-30.85L821.75-30.85Q818.8-30.85 816.93-29.58 815.05-28.3 815.05-26.15L815.05-26.15Q815.05-23.95 817.33-22.38 819.6-20.8 824.8-19.4L824.8-19.4Z" opacity="1" transform="matrix(1,0,0,1,0,0)" fill="#454545" class="undefined-text-1" data-fill-palette-color="secondary" id="text-1"></path></svg></g></svg></g></svg></g></svg></g><g></g></svg></g></svg></g></svg></g><g mask="url(#d06725e2-4eae-4444-ae21-4ae63538b41c)"><g transform="matrix(3.9383112659000608, 0, 0, 3.9383112659000608, 1, 16.40901312036509)"><svg xmlns="http://www.w3.org/2000/svg" xmlns:xlink="http://www.w3.org/1999/xlink" version="1.1" x="0" y="0" viewBox="0.079 23.057 99.921 54.435" enable-background="new 0 0 100 100" xml:space="preserve" height="54.435" width="99.921" class="icon-none" data-fill-palette-color="accent" id="none"><polygon points="94.106,70.281 91.115,70.281 91.115,31.999 9.979,31.999 9.979,29.007 94.106,29.007 94.106,70.281 " fill="#454545" data-fill-palette-color="accent"></polygon><polygon points="100,63.197 97.009,63.197 97.009,26.049 18.367,26.049 18.367,23.057 100,23.057 100,63.197 " fill="#454545" data-fill-palette-color="accent"></polygon><path d="M52.889 77.452c4.61-3.641 7.537-9.837 7.537-16.998 0-11.271-7.546-20.408-16.85-20.408-9.306 0-16.85 9.137-16.85 20.408 0 7.159 2.902 13.337 7.508 16.979l0.046 0.059H0.079V35.554l0 0h87.486v41.938h-34.73L52.889 77.452zM81.144 71.068v-9.466h-2.704v6.762H64.915v2.704H81.144L81.144 71.068zM22.989 71.068v-2.704H9.465v-6.762H6.76v9.466H22.989L22.989 71.068zM81.144 51.46v-9.466H64.915v2.704h13.524v6.764L81.144 51.46 81.144 51.46zM9.465 51.46v-6.763h13.524v-2.705H6.76v9.467L9.465 51.46 9.465 51.46z" fill="#454545" data-fill-palette-color="accent"></path></svg></g></g></svg></g><defs><mask id="d06725e2-4eae-4444-ae21-4ae63538b41c"><rect width="640" height="400" fill="white"></rect><rect width="348.05760000000004" height="86.50315200500583" fill="black" x="145.97119999999998" y="156.74842399749707" id="transform-me" transform="matrix(1,0,0,1,-122.24000000000001,-76.4)"></rect></mask></defs></svg><rect width="395.52" height="247.2" fill="none" stroke="none" visibility="hidden"></rect></g></svg></g></svg>
