<?xml version="1.0" encoding="UTF-8"?>
<svg xmlns="http://www.w3.org/2000/svg" xmlns:xlink="http://www.w3.org/1999/xlink" width="794px" height="500px" viewBox="0 0 832 500" version="1.1">
<g id="surface1">
<path style=" stroke:none;fill-rule:nonzero;fill:rgb(94.901961%,94.901961%,94.901961%);fill-opacity:1;" d="M 52.339844 104.804688 C 23.433594 104.804688 0 81.34375 0 52.402344 C 0 23.460938 23.433594 0 52.339844 0 C 81.246094 0 104.679688 23.460938 104.679688 52.402344 C 104.648438 81.328125 81.234375 104.769531 52.339844 104.804688 Z M 52.339844 2.183594 C 24.636719 2.183594 2.179688 24.667969 2.179688 52.402344 C 2.179688 80.136719 24.636719 102.621094 52.339844 102.621094 C 80.042969 102.621094 102.5 80.136719 102.5 52.402344 C 102.46875 24.679688 80.03125 2.214844 52.339844 2.183594 Z M 52.339844 2.183594 "/>
<path style=" stroke:none;fill-rule:nonzero;fill:rgb(94.901961%,94.901961%,94.901961%);fill-opacity:1;" d="M 407.820312 74.234375 C 393.367188 74.234375 381.652344 62.503906 381.652344 48.035156 C 381.652344 33.566406 393.367188 21.835938 407.820312 21.835938 C 422.273438 21.835938 433.992188 33.566406 433.992188 48.035156 C 433.976562 62.5 422.269531 74.21875 407.820312 74.234375 Z M 407.820312 24.015625 C 394.574219 24.015625 383.832031 34.769531 383.832031 48.035156 C 383.832031 61.300781 394.574219 72.050781 407.820312 72.050781 C 421.070312 72.050781 431.8125 61.300781 431.8125 48.035156 C 431.796875 34.777344 421.066406 24.03125 407.820312 24.015625 Z M 407.820312 24.015625 "/>
<path style=" stroke:none;fill-rule:nonzero;fill:rgb(94.901961%,94.901961%,94.901961%);fill-opacity:1;" d="M 592.105469 201.964844 C 575.84375 201.964844 562.664062 188.769531 562.664062 172.488281 C 562.664062 156.210938 575.84375 143.011719 592.105469 143.011719 C 608.363281 143.011719 621.546875 156.210938 621.546875 172.488281 C 621.527344 188.761719 608.355469 201.945312 592.105469 201.964844 Z M 592.105469 145.195312 C 577.050781 145.195312 564.84375 157.414062 564.84375 172.488281 C 564.84375 187.5625 577.050781 199.78125 592.105469 199.78125 C 607.160156 199.78125 619.367188 187.5625 619.367188 172.488281 C 619.347656 157.421875 607.152344 145.214844 592.105469 145.195312 Z M 592.105469 145.195312 "/>
<path style=" stroke:none;fill-rule:nonzero;fill:rgb(80%,80%,80%);fill-opacity:1;" d="M 830.972656 500 L 585.625 500 C 585.023438 500 584.535156 499.511719 584.535156 498.910156 C 584.535156 498.304688 585.023438 497.816406 585.625 497.816406 L 830.972656 497.816406 C 831.574219 497.816406 832.0625 498.304688 832.0625 498.910156 C 832.0625 499.511719 831.574219 500 830.972656 500 Z M 830.972656 500 "/>
<path style=" stroke:none;fill-rule:nonzero;fill:rgb(100%,72.156863%,72.156863%);fill-opacity:1;" d="M 725.660156 140.488281 C 725.660156 155.296875 713.667969 167.300781 698.875 167.300781 C 684.085938 167.300781 672.09375 155.296875 672.09375 140.488281 C 672.09375 125.679688 684.085938 113.671875 698.875 113.671875 C 713.667969 113.671875 725.660156 125.679688 725.660156 140.488281 Z M 725.660156 140.488281 "/>
<path style=" stroke:none;fill-rule:nonzero;fill:rgb(100%,72.156863%,72.156863%);fill-opacity:1;" d="M 701.65625 458.890625 L 688.996094 463.191406 L 666.390625 416.359375 L 685.070312 410.007812 Z M 701.65625 458.890625 "/>
<path style=" stroke:none;fill-rule:nonzero;fill:rgb(18.431373%,18.039216%,25.490196%);fill-opacity:1;" d="M 678.726562 462.648438 L 703.140625 454.347656 L 708.359375 469.734375 L 668.578125 483.261719 C 665.695312 474.765625 670.238281 465.535156 678.726562 462.648438 Z M 678.726562 462.648438 "/>
<path style=" stroke:none;fill-rule:nonzero;fill:rgb(100%,72.156863%,72.156863%);fill-opacity:1;" d="M 730.257812 485.34375 L 716.90625 486.015625 L 707.960938 434.777344 L 727.667969 433.785156 Z M 730.257812 485.34375 "/>
<path style=" stroke:none;fill-rule:nonzero;fill:rgb(18.431373%,18.039216%,25.490196%);fill-opacity:1;" d="M 707.175781 482.675781 L 732.925781 481.378906 L 733.742188 497.613281 L 691.777344 499.722656 C 691.328125 490.757812 698.222656 483.125 707.175781 482.675781 Z M 707.175781 482.675781 "/>
<path style=" stroke:none;fill-rule:nonzero;fill:rgb(100%,72.156863%,72.156863%);fill-opacity:1;" d="M 650.800781 315.097656 C 653.226562 312.9375 654.570312 309.8125 654.46875 306.566406 C 654.371094 303.320312 652.839844 300.28125 650.292969 298.273438 L 663.019531 261.402344 L 643.402344 266.421875 L 634.320312 300.664062 C 631.164062 305.277344 631.953125 311.527344 636.160156 315.210938 C 640.363281 318.890625 646.652344 318.84375 650.800781 315.097656 Z M 650.800781 315.097656 "/>
<path style=" stroke:none;fill-rule:nonzero;fill:rgb(18.431373%,18.039216%,25.490196%);fill-opacity:1;" d="M 729.007812 469.894531 C 728.835938 469.894531 728.664062 469.886719 728.492188 469.867188 L 710.367188 467.945312 C 708.074219 467.714844 706.253906 465.90625 706.007812 463.609375 L 692.003906 338.597656 L 681.867188 372.804688 L 700.761719 440.035156 C 701.152344 441.421875 700.914062 442.910156 700.113281 444.105469 C 699.3125 445.300781 698.027344 446.082031 696.597656 446.246094 L 678.226562 448.363281 C 675.8125 448.628906 673.558594 447.09375 672.925781 444.742188 L 652.851562 369.085938 C 652.6875 368.460938 652.644531 367.8125 652.730469 367.175781 L 661.753906 299.273438 L 729.046875 304.675781 L 733.914062 464.832031 C 733.953125 466.160156 733.457031 467.449219 732.53125 468.402344 C 731.605469 469.355469 730.335938 469.894531 729.007812 469.894531 Z M 729.007812 469.894531 "/>
<path style=" stroke:none;fill-rule:nonzero;fill:rgb(25.490196%,50.980392%,89.411765%);fill-opacity:1;" d="M 705.746094 316.285156 C 683.199219 316.285156 657.675781 307.566406 656.128906 307.03125 L 655.683594 306.875 L 681.117188 176.214844 L 681.585938 176.234375 C 691.664062 176.644531 719.171875 176.855469 719.449219 176.855469 L 719.941406 176.859375 L 730.542969 292.164062 L 732.4375 309.027344 L 732.207031 309.21875 C 725.71875 314.46875 716.042969 316.285156 705.746094 316.285156 Z M 705.746094 316.285156 "/>
<path style=" stroke:none;fill-rule:nonzero;fill:rgb(18.431373%,18.039216%,25.490196%);fill-opacity:1;" d="M 665.015625 304.996094 L 649.105469 298.578125 L 657.214844 200.386719 C 657.609375 195.484375 660.207031 191.027344 664.273438 188.265625 L 672.648438 182.5625 C 672.167969 180.925781 672.5 179.160156 673.539062 177.808594 C 674.582031 176.460938 676.207031 175.695312 677.910156 175.75 L 680.308594 175.828125 C 681.242188 175.199219 682.464844 175.207031 683.386719 175.851562 C 684.3125 176.492188 684.746094 177.636719 684.480469 178.730469 L 683.953125 189.136719 Z M 665.015625 304.996094 "/>
<path style=" stroke:none;fill-rule:nonzero;fill:rgb(18.431373%,18.039216%,25.490196%);fill-opacity:1;" d="M 656.988281 287.390625 L 636.21875 286.515625 L 642.945312 243.183594 L 648.523438 202.410156 C 648.742188 199.445312 650.308594 196.742188 652.765625 195.074219 C 655.226562 193.40625 658.3125 192.953125 661.144531 193.84375 C 665.644531 195.257812 668.480469 199.695312 667.878906 204.375 L 662.230469 248.554688 Z M 656.988281 287.390625 "/>
<path style=" stroke:none;fill-rule:nonzero;fill:rgb(18.431373%,18.039216%,25.490196%);fill-opacity:1;" d="M 689.878906 306.496094 L 689.738281 306.058594 C 689.640625 305.757812 680.28125 275.695312 695.941406 239.824219 L 703.796875 200.710938 L 710.511719 176.15625 C 710.765625 175.265625 711.425781 174.546875 712.289062 174.21875 C 713.3125 173.863281 714.449219 174.15625 715.175781 174.960938 C 719.855469 173.585938 724.886719 174.089844 729.199219 176.367188 L 738.625 181.335938 C 742.9375 183.609375 745.167969 188.511719 744.058594 193.261719 L 731.175781 248.308594 L 737.4375 299.726562 Z M 689.878906 306.496094 "/>
<path style=" stroke:none;fill-rule:nonzero;fill:rgb(100%,72.156863%,72.156863%);fill-opacity:1;" d="M 703.597656 285.304688 C 706.820312 285.652344 710.039062 284.554688 712.378906 282.304688 C 714.71875 280.054688 715.941406 276.878906 715.71875 273.640625 L 744.894531 252 L 734.695312 247.160156 L 703.234375 263.386719 C 697.699219 264.136719 693.601562 268.914062 693.691406 274.503906 C 693.785156 280.097656 698.039062 284.734375 703.597656 285.304688 Z M 703.597656 285.304688 "/>
<path style=" stroke:none;fill-rule:nonzero;fill:rgb(18.431373%,18.039216%,25.490196%);fill-opacity:1;" d="M 721.886719 275.617188 L 712.035156 257.199219 L 736.335938 241.1875 L 724.476562 198.601562 C 723.515625 195.152344 724.03125 191.460938 725.898438 188.410156 C 727.769531 185.359375 730.820312 183.226562 734.324219 182.519531 C 740.65625 181.253906 746.949219 184.878906 749.042969 190.996094 L 765.046875 238.085938 C 765.722656 240.074219 765.058594 242.273438 763.398438 243.558594 Z M 721.886719 275.617188 "/>
<path style=" stroke:none;fill-rule:nonzero;fill:rgb(18.431373%,18.039216%,25.490196%);fill-opacity:1;" d="M 700.773438 146.175781 C 697.5625 146.59375 695.140625 143.304688 694.015625 140.261719 C 692.894531 137.222656 692.039062 133.683594 689.246094 132.042969 C 685.433594 129.796875 680.554688 132.496094 676.191406 131.757812 C 671.265625 130.921875 668.066406 125.695312 667.816406 120.699219 C 667.5625 115.707031 669.550781 110.902344 671.496094 106.296875 L 672.175781 112.019531 C 671.992188 108.074219 673.867188 104.320312 677.128906 102.101562 L 676.253906 110.496094 C 676.628906 108.15625 677.921875 106.0625 679.84375 104.679688 C 681.765625 103.296875 684.160156 102.734375 686.496094 103.121094 L 686.359375 108.125 C 692.046875 107.449219 697.785156 106.769531 703.488281 107.285156 C 709.195312 107.804688 714.9375 109.609375 719.261719 113.371094 C 725.730469 119 728.09375 128.261719 727.300781 136.804688 C 726.507812 145.347656 722.984375 153.371094 719.316406 161.125 C 718.390625 163.074219 717.113281 165.273438 714.972656 165.523438 C 713.046875 165.746094 711.289062 164.136719 710.6875 162.292969 C 710.226562 160.398438 710.246094 158.421875 710.742188 156.535156 C 711.28125 153.65625 711.964844 150.714844 711.457031 147.828125 C 710.945312 144.945312 708.875 142.09375 705.96875 141.738281 C 703.0625 141.386719 700.089844 144.710938 701.488281 147.285156 Z M 700.773438 146.175781 "/>
<path style=" stroke:none;fill-rule:nonzero;fill:rgb(90.196078%,90.196078%,90.196078%);fill-opacity:1;" d="M 350.367188 440.585938 L 339.941406 436.191406 L 332.789062 383.867188 L 237.550781 383.867188 L 229.800781 435.976562 L 220.472656 440.648438 C 219.554688 441.105469 219.070312 442.140625 219.308594 443.140625 C 219.542969 444.140625 220.4375 444.847656 221.464844 444.847656 L 349.507812 444.847656 C 350.5625 444.847656 351.46875 444.105469 351.679688 443.070312 C 351.886719 442.035156 351.339844 440.996094 350.367188 440.585938 Z M 350.367188 440.585938 "/>
<path style=" stroke:none;fill-rule:nonzero;fill:rgb(80%,80%,80%);fill-opacity:1;" d="M 519.613281 390.828125 L 51.773438 390.828125 C 46.664062 390.816406 42.527344 386.667969 42.527344 381.550781 L 42.527344 315.503906 L 528.859375 315.503906 L 528.859375 381.550781 C 528.859375 386.667969 524.722656 390.816406 519.613281 390.828125 Z M 519.613281 390.828125 "/>
<path style=" stroke:none;fill-rule:nonzero;fill:rgb(24.705882%,23.921569%,33.72549%);fill-opacity:1;" d="M 529.347656 346.71875 L 42.101562 346.71875 L 42.101562 64.113281 C 42.105469 57.9375 47.105469 52.933594 53.273438 52.925781 L 518.175781 52.925781 C 524.34375 52.933594 529.339844 57.9375 529.347656 64.113281 Z M 529.347656 346.71875 "/>
<path style=" stroke:none;fill-rule:nonzero;fill:rgb(100%,100%,100%);fill-opacity:1;" d="M 500.246094 326.207031 L 71.203125 326.207031 C 66.445312 326.203125 62.59375 322.34375 62.585938 317.582031 L 62.585938 82.0625 C 62.59375 77.300781 66.445312 73.441406 71.203125 73.4375 L 500.246094 73.4375 C 505.003906 73.441406 508.855469 77.300781 508.863281 82.0625 L 508.863281 317.582031 C 508.855469 322.34375 505.003906 326.203125 500.246094 326.207031 Z M 500.246094 326.207031 "/>
<path style=" stroke:none;fill-rule:nonzero;fill:rgb(80%,80%,80%);fill-opacity:1;" d="M 496.207031 445.394531 L 80.753906 445.394531 C 80.152344 445.394531 79.664062 444.90625 79.664062 444.300781 C 79.664062 443.699219 80.152344 443.210938 80.753906 443.210938 L 496.207031 443.210938 C 496.8125 443.210938 497.300781 443.699219 497.300781 444.300781 C 497.300781 444.90625 496.8125 445.394531 496.207031 445.394531 Z M 496.207031 445.394531 "/>
<path style=" stroke:none;fill-rule:nonzero;fill:rgb(24.705882%,23.921569%,33.72549%);fill-opacity:1;" d="M 459.941406 296.941406 L 111.507812 296.941406 C 110.90625 296.941406 110.417969 296.453125 110.417969 295.851562 L 110.417969 128.652344 C 110.417969 128.050781 110.90625 127.5625 111.507812 127.5625 C 112.109375 127.5625 112.597656 128.050781 112.597656 128.652344 L 112.597656 294.761719 L 459.941406 294.761719 C 460.542969 294.761719 461.03125 295.25 461.03125 295.851562 C 461.03125 296.453125 460.542969 296.941406 459.941406 296.941406 Z M 459.941406 296.941406 "/>
<path style=" stroke:none;fill-rule:nonzero;fill:rgb(25.490196%,50.980392%,89.411765%);fill-opacity:1;" d="M 185.953125 284.933594 L 154.261719 284.933594 C 152.476562 284.933594 151.027344 283.484375 151.023438 281.695312 L 151.023438 237.957031 C 151.027344 236.167969 152.476562 234.71875 154.261719 234.714844 L 185.953125 234.714844 C 187.738281 234.71875 189.1875 236.167969 189.191406 237.957031 L 189.191406 281.695312 C 189.1875 283.484375 187.738281 284.933594 185.953125 284.933594 Z M 185.953125 284.933594 "/>
<path style=" stroke:none;fill-rule:nonzero;fill:rgb(25.490196%,50.980392%,89.411765%);fill-opacity:1;" d="M 243.746094 284.933594 L 212.054688 284.933594 C 210.269531 284.933594 208.820312 283.484375 208.816406 281.695312 L 208.816406 196.472656 C 208.820312 194.683594 210.269531 193.234375 212.054688 193.230469 L 243.746094 193.230469 C 245.53125 193.234375 246.980469 194.683594 246.984375 196.472656 L 246.984375 281.695312 C 246.980469 283.484375 245.53125 284.933594 243.746094 284.933594 Z M 243.746094 284.933594 "/>
<path style=" stroke:none;fill-rule:nonzero;fill:rgb(25.490196%,50.980392%,89.411765%);fill-opacity:1;" d="M 301.539062 284.933594 L 269.847656 284.933594 C 268.0625 284.933594 266.613281 283.484375 266.609375 281.695312 L 266.609375 237.957031 C 266.613281 236.167969 268.0625 234.71875 269.847656 234.714844 L 301.539062 234.714844 C 303.324219 234.71875 304.773438 236.167969 304.777344 237.957031 L 304.777344 281.695312 C 304.773438 283.484375 303.324219 284.933594 301.539062 284.933594 Z M 301.539062 284.933594 "/>
<path style=" stroke:none;fill-rule:nonzero;fill:rgb(25.490196%,50.980392%,89.411765%);fill-opacity:1;" d="M 359.332031 284.933594 L 327.640625 284.933594 C 325.894531 284.972656 324.445312 283.589844 324.402344 281.839844 L 324.402344 179.949219 C 324.445312 178.203125 325.894531 176.816406 327.640625 176.855469 L 359.332031 176.855469 C 361.078125 176.816406 362.523438 178.203125 362.570312 179.949219 L 362.570312 281.839844 C 362.523438 283.589844 361.078125 284.972656 359.332031 284.933594 Z M 359.332031 284.933594 "/>
<path style=" stroke:none;fill-rule:nonzero;fill:rgb(25.490196%,50.980392%,89.411765%);fill-opacity:1;" d="M 417.125 284.933594 L 385.433594 284.933594 C 383.648438 284.933594 382.199219 283.484375 382.195312 281.695312 L 382.195312 150.621094 C 382.199219 148.832031 383.648438 147.382812 385.433594 147.378906 L 417.125 147.378906 C 418.910156 147.382812 420.359375 148.832031 420.363281 150.621094 L 420.363281 281.695312 C 420.359375 283.484375 418.910156 284.933594 417.125 284.933594 Z M 417.125 284.933594 "/>
<path style=" stroke:none;fill-rule:nonzero;fill:rgb(24.705882%,23.921569%,33.72549%);fill-opacity:1;" d="M 176.648438 215.066406 C 176.648438 218.683594 173.722656 221.617188 170.109375 221.617188 C 166.492188 221.617188 163.566406 218.683594 163.566406 215.066406 C 163.566406 211.449219 166.492188 208.515625 170.109375 208.515625 C 173.722656 208.515625 176.648438 211.449219 176.648438 215.066406 Z M 176.648438 215.066406 "/>
<path style=" stroke:none;fill-rule:nonzero;fill:rgb(24.705882%,23.921569%,33.72549%);fill-opacity:1;" d="M 234.441406 172.488281 C 234.441406 176.105469 231.515625 179.039062 227.902344 179.039062 C 224.285156 179.039062 221.359375 176.105469 221.359375 172.488281 C 221.359375 168.871094 224.285156 165.9375 227.902344 165.9375 C 231.515625 165.9375 234.441406 168.871094 234.441406 172.488281 Z M 234.441406 172.488281 "/>
<path style=" stroke:none;fill-rule:nonzero;fill:rgb(24.705882%,23.921569%,33.72549%);fill-opacity:1;" d="M 292.234375 215.066406 C 292.234375 218.683594 289.308594 221.617188 285.691406 221.617188 C 282.078125 221.617188 279.152344 218.683594 279.152344 215.066406 C 279.152344 211.449219 282.078125 208.515625 285.691406 208.515625 C 289.308594 208.515625 292.234375 211.449219 292.234375 215.066406 Z M 292.234375 215.066406 "/>
<path style=" stroke:none;fill-rule:nonzero;fill:rgb(24.705882%,23.921569%,33.72549%);fill-opacity:1;" d="M 350.027344 151.746094 C 350.027344 155.363281 347.101562 158.296875 343.484375 158.296875 C 339.871094 158.296875 336.945312 155.363281 336.945312 151.746094 C 336.945312 148.128906 339.871094 145.195312 343.484375 145.195312 C 347.101562 145.195312 350.027344 148.128906 350.027344 151.746094 Z M 350.027344 151.746094 "/>
<path style=" stroke:none;fill-rule:nonzero;fill:rgb(24.705882%,23.921569%,33.72549%);fill-opacity:1;" d="M 407.820312 127.730469 C 407.820312 131.347656 404.890625 134.28125 401.277344 134.28125 C 397.664062 134.28125 394.738281 131.347656 394.738281 127.730469 C 394.738281 124.113281 397.664062 121.179688 401.277344 121.179688 C 404.890625 121.179688 407.820312 124.113281 407.820312 127.730469 Z M 407.820312 127.730469 "/>
<path style=" stroke:none;fill-rule:nonzero;fill:rgb(24.705882%,23.921569%,33.72549%);fill-opacity:1;" d="M 285.832031 216.53125 L 227.902344 173.089844 L 170.761719 215.9375 L 169.453125 214.191406 L 227.902344 170.363281 L 285.554688 213.597656 L 342.847656 150.828125 L 343.078125 150.734375 L 400.871094 127.421875 L 401.6875 129.445312 L 344.125 152.664062 Z M 285.832031 216.53125 "/>
</g>
</svg>
