<?xml version="1.0" encoding="UTF-8"?>
<svg xmlns="http://www.w3.org/2000/svg" xmlns:xlink="http://www.w3.org/1999/xlink" width="794px" height="500px" viewBox="0 0 714 500" version="1.1">
<g id="surface1">
<path style=" stroke:none;fill-rule:nonzero;fill:rgb(100%,72.156863%,72.156863%);fill-opacity:1;" d="M 603.082031 347.078125 C 601.585938 345.421875 600.894531 343.1875 601.203125 340.976562 C 601.511719 338.765625 602.78125 336.800781 604.671875 335.617188 L 598.695312 309.476562 L 611.738281 314.359375 L 615.414062 338.433594 C 617.230469 341.820312 616.230469 346.03125 613.085938 348.238281 C 609.9375 350.445312 605.640625 349.945312 603.082031 347.078125 Z M 603.082031 347.078125 "/>
<path style=" stroke:none;fill-rule:nonzero;fill:rgb(24.705882%,23.921569%,33.72549%);fill-opacity:1;" d="M 602.179688 326.332031 L 590.714844 304.148438 L 592.265625 248.292969 L 593 249.847656 C 593.859375 251.65625 613.976562 294.273438 612.542969 308.542969 L 614.839844 321.582031 Z M 602.179688 326.332031 "/>
<path style=" stroke:none;fill-rule:nonzero;fill:rgb(100%,72.156863%,72.156863%);fill-opacity:1;" d="M 594.703125 490.265625 L 603.898438 490.265625 L 608.269531 454.777344 L 594.703125 454.78125 Z M 594.703125 490.265625 "/>
<path style=" stroke:none;fill-rule:nonzero;fill:rgb(18.431373%,18.039216%,25.490196%);fill-opacity:1;" d="M 592.359375 487.261719 L 610.464844 487.261719 C 616.835938 487.261719 622.003906 492.429688 622.003906 498.804688 L 622.003906 499.183594 L 592.359375 499.183594 Z M 592.359375 487.261719 "/>
<path style=" stroke:none;fill-rule:nonzero;fill:rgb(100%,72.156863%,72.156863%);fill-opacity:1;" d="M 503.867188 483.273438 L 512.726562 485.738281 L 526.441406 452.722656 L 513.367188 449.085938 Z M 503.867188 483.273438 "/>
<path style=" stroke:none;fill-rule:nonzero;fill:rgb(18.431373%,18.039216%,25.490196%);fill-opacity:1;" d="M 502.414062 479.75 L 519.855469 484.605469 C 525.996094 486.3125 529.589844 492.679688 527.882812 498.820312 L 527.78125 499.183594 L 499.222656 491.238281 Z M 502.414062 479.75 "/>
<path style=" stroke:none;fill-rule:nonzero;fill:rgb(18.431373%,18.039216%,25.490196%);fill-opacity:1;" d="M 585.539062 476.429688 L 566.984375 343.488281 L 526.910156 475.679688 L 495.402344 464.910156 L 540.5625 287.90625 L 540.859375 287.882812 L 588.167969 284.589844 L 622.347656 465.6875 Z M 585.539062 476.429688 "/>
<path style=" stroke:none;fill-rule:nonzero;fill:rgb(25.490196%,50.980392%,89.411765%);fill-opacity:1;" d="M 580.628906 225.261719 C 580.628906 225.261719 563.382812 216.253906 540.136719 220.007812 C 540.136719 220.007812 527.765625 249.878906 540.136719 261.769531 L 543.511719 291.671875 C 543.511719 291.671875 575.007812 310.433594 585.503906 288.671875 L 584.003906 263.90625 C 584.003906 263.90625 591.503906 252.03125 585.503906 243.335938 C 581.910156 238.023438 580.191406 231.660156 580.628906 225.261719 Z M 580.628906 225.261719 "/>
<path style=" stroke:none;fill-rule:nonzero;fill:rgb(24.705882%,23.921569%,33.72549%);fill-opacity:1;" d="M 582.816406 361.269531 L 585.84375 298.40625 L 577.273438 223.625 L 577.667969 223.566406 C 588.90625 221.871094 592.511719 241.246094 592.660156 242.070312 L 612.222656 352.75 Z M 582.816406 361.269531 "/>
<path style=" stroke:none;fill-rule:nonzero;fill:rgb(24.705882%,23.921569%,33.72549%);fill-opacity:1;" d="M 544.679688 361.921875 L 510.097656 358.078125 L 510.105469 357.699219 C 510.226562 352.578125 513.203125 232.117188 521.542969 223.585938 C 529.933594 215.003906 545.765625 218.71875 546.433594 218.882812 L 546.769531 218.960938 L 543.921875 269.933594 Z M 544.679688 361.921875 "/>
<path style=" stroke:none;fill-rule:nonzero;fill:rgb(100%,72.156863%,72.156863%);fill-opacity:1;" d="M 551.046875 289.929688 C 548.925781 290.625 546.605469 290.34375 544.710938 289.164062 C 542.816406 287.984375 541.542969 286.027344 541.230469 283.816406 L 514.933594 278.660156 L 524.691406 268.71875 L 548.167969 275.136719 C 551.996094 274.851562 555.4375 277.480469 556.171875 281.253906 C 556.90625 285.027344 554.703125 288.753906 551.046875 289.929688 Z M 551.046875 289.929688 "/>
<path style=" stroke:none;fill-rule:nonzero;fill:rgb(24.705882%,23.921569%,33.72549%);fill-opacity:1;" d="M 537.015625 283.894531 L 528.445312 282.050781 C 515.796875 285.859375 493.71875 272.453125 484.792969 266.5 C 483.113281 265.382812 482.570312 263.160156 483.175781 259.90625 C 484.066406 255.351562 486.574219 251.273438 490.238281 248.425781 L 521.667969 223.488281 L 529.597656 222.160156 L 531.957031 235.519531 L 511.929688 257.042969 L 541.410156 273.101562 Z M 537.015625 283.894531 "/>
<path style=" stroke:none;fill-rule:nonzero;fill:rgb(18.431373%,18.039216%,25.490196%);fill-opacity:1;" d="M 533.625 208.695312 L 533.625 191.367188 C 533.625 176.101562 545.992188 163.726562 561.246094 163.726562 C 576.5 163.726562 588.867188 176.101562 588.867188 191.367188 L 588.867188 208.695312 C 588.863281 210.746094 587.203125 212.40625 585.15625 212.40625 L 537.335938 212.40625 C 535.289062 212.40625 533.628906 210.746094 533.625 208.695312 Z M 533.625 208.695312 "/>
<path style=" stroke:none;fill-rule:nonzero;fill:rgb(100%,72.156863%,72.156863%);fill-opacity:1;" d="M 580.386719 191.972656 C 580.386719 203.164062 571.320312 212.238281 560.136719 212.238281 C 548.953125 212.238281 539.886719 203.164062 539.886719 191.972656 C 539.886719 180.78125 548.953125 171.707031 560.136719 171.707031 C 571.320312 171.707031 580.386719 180.78125 580.386719 191.972656 Z M 580.386719 191.972656 "/>
<path style=" stroke:none;fill-rule:nonzero;fill:rgb(18.431373%,18.039216%,25.490196%);fill-opacity:1;" d="M 539.328125 191.894531 C 538.9375 191.441406 538.761719 190.84375 538.847656 190.25 L 541.246094 173.535156 C 541.34375 172.84375 541.78125 172.246094 542.410156 171.949219 C 554.65625 166.214844 567.070312 166.207031 579.316406 171.929688 C 579.976562 172.242188 580.425781 172.878906 580.492188 173.609375 L 582.09375 190.347656 C 582.152344 190.925781 581.960938 191.5 581.570312 191.929688 C 581.179688 192.359375 580.625 192.605469 580.042969 192.605469 L 575.980469 192.605469 C 575.183594 192.605469 574.453125 192.140625 574.113281 191.414062 L 572.363281 187.65625 C 572.128906 187.15625 571.59375 186.871094 571.046875 186.957031 C 570.503906 187.042969 570.082031 187.480469 570.015625 188.027344 L 569.667969 190.796875 C 569.539062 191.832031 568.660156 192.605469 567.621094 192.605469 L 540.886719 192.605469 C 540.289062 192.605469 539.722656 192.347656 539.328125 191.894531 Z M 539.328125 191.894531 "/>
<path style=" stroke:none;fill-rule:nonzero;fill:rgb(90.196078%,90.196078%,90.196078%);fill-opacity:1;" d="M 0 33.304688 L 454.289062 33.304688 L 454.289062 316.402344 L 0 316.402344 Z M 0 33.304688 "/>
<path style=" stroke:none;fill-rule:nonzero;fill:rgb(100%,100%,100%);fill-opacity:1;" d="M 30.464844 87.84375 L 113.667969 87.84375 L 113.667969 141.964844 L 30.464844 141.964844 Z M 30.464844 87.84375 "/>
<path style=" stroke:none;fill-rule:nonzero;fill:rgb(100%,100%,100%);fill-opacity:1;" d="M 133.851562 87.84375 L 217.054688 87.84375 L 217.054688 141.964844 L 133.851562 141.964844 Z M 133.851562 87.84375 "/>
<path style=" stroke:none;fill-rule:nonzero;fill:rgb(100%,100%,100%);fill-opacity:1;" d="M 237.234375 87.84375 L 320.4375 87.84375 L 320.4375 141.964844 L 237.234375 141.964844 Z M 237.234375 87.84375 "/>
<path style=" stroke:none;fill-rule:nonzero;fill:rgb(100%,100%,100%);fill-opacity:1;" d="M 340.621094 87.84375 L 423.824219 87.84375 L 423.824219 141.964844 L 340.621094 141.964844 Z M 340.621094 87.84375 "/>
<path style=" stroke:none;fill-rule:nonzero;fill:rgb(100%,100%,100%);fill-opacity:1;" d="M 30.464844 164.445312 L 113.667969 164.445312 L 113.667969 218.566406 L 30.464844 218.566406 Z M 30.464844 164.445312 "/>
<path style=" stroke:none;fill-rule:nonzero;fill:rgb(100%,100%,100%);fill-opacity:1;" d="M 133.851562 164.445312 L 217.054688 164.445312 L 217.054688 218.566406 L 133.851562 218.566406 Z M 133.851562 164.445312 "/>
<path style=" stroke:none;fill-rule:nonzero;fill:rgb(100%,100%,100%);fill-opacity:1;" d="M 237.234375 164.445312 L 320.4375 164.445312 L 320.4375 218.566406 L 237.234375 218.566406 Z M 237.234375 164.445312 "/>
<path style=" stroke:none;fill-rule:nonzero;fill:rgb(100%,100%,100%);fill-opacity:1;" d="M 340.621094 164.445312 L 423.824219 164.445312 L 423.824219 218.566406 L 340.621094 218.566406 Z M 340.621094 164.445312 "/>
<path style=" stroke:none;fill-rule:nonzero;fill:rgb(100%,100%,100%);fill-opacity:1;" d="M 30.464844 241.046875 L 113.667969 241.046875 L 113.667969 295.171875 L 30.464844 295.171875 Z M 30.464844 241.046875 "/>
<path style=" stroke:none;fill-rule:nonzero;fill:rgb(100%,100%,100%);fill-opacity:1;" d="M 133.851562 241.046875 L 217.054688 241.046875 L 217.054688 295.171875 L 133.851562 295.171875 Z M 133.851562 241.046875 "/>
<path style=" stroke:none;fill-rule:nonzero;fill:rgb(100%,100%,100%);fill-opacity:1;" d="M 237.234375 241.046875 L 320.4375 241.046875 L 320.4375 295.171875 L 237.234375 295.171875 Z M 237.234375 241.046875 "/>
<path style=" stroke:none;fill-rule:nonzero;fill:rgb(100%,100%,100%);fill-opacity:1;" d="M 340.621094 241.046875 L 423.824219 241.046875 L 423.824219 295.171875 L 340.621094 295.171875 Z M 340.621094 241.046875 "/>
<path style=" stroke:none;fill-rule:nonzero;fill:rgb(100%,100%,100%);fill-opacity:1;" d="M 131.460938 54.121094 C 131.460938 61.019531 125.875 66.609375 118.980469 66.609375 C 112.085938 66.609375 106.5 61.019531 106.5 54.121094 C 106.5 47.222656 112.085938 41.632812 118.980469 41.632812 C 125.875 41.632812 131.460938 47.222656 131.460938 54.121094 Z M 131.460938 54.121094 "/>
<path style=" stroke:none;fill-rule:nonzero;fill:rgb(100%,100%,100%);fill-opacity:1;" d="M 337.804688 54.121094 C 337.804688 61.019531 332.214844 66.609375 325.324219 66.609375 C 318.429688 66.609375 312.84375 61.019531 312.84375 54.121094 C 312.84375 47.222656 318.429688 41.632812 325.324219 41.632812 C 332.214844 41.632812 337.804688 47.222656 337.804688 54.121094 Z M 337.804688 54.121094 "/>
<path style=" stroke:none;fill-rule:nonzero;fill:rgb(90.196078%,90.196078%,90.196078%);fill-opacity:1;" d="M 113.988281 0 L 123.972656 0 L 123.972656 57.453125 L 113.988281 57.453125 Z M 113.988281 0 "/>
<path style=" stroke:none;fill-rule:nonzero;fill:rgb(90.196078%,90.196078%,90.196078%);fill-opacity:1;" d="M 320.332031 0 L 330.316406 0 L 330.316406 57.453125 L 320.332031 57.453125 Z M 320.332031 0 "/>
<path style=" stroke:none;fill-rule:nonzero;fill:rgb(25.490196%,50.980392%,89.411765%);fill-opacity:1;" d="M 401.039062 114.902344 C 401.03125 124.253906 394.152344 132.171875 384.902344 133.476562 C 375.652344 134.785156 366.847656 129.085938 364.253906 120.105469 C 361.65625 111.125 366.058594 101.601562 374.574219 97.765625 C 383.09375 93.925781 393.136719 96.945312 398.132812 104.847656 C 400.035156 107.855469 401.042969 111.34375 401.039062 114.902344 Z M 401.039062 114.902344 "/>
<path style=" stroke:none;fill-rule:nonzero;fill:rgb(100%,100%,100%);fill-opacity:1;" d="M 398.132812 104.847656 L 379.609375 123.378906 C 378.445312 121.574219 371.960938 113.191406 371.960938 113.191406 C 372.792969 112.351562 373.679688 111.566406 374.617188 110.847656 L 379.992188 118.023438 L 395.960938 102.042969 C 396.773438 102.90625 397.5 103.84375 398.132812 104.847656 Z M 398.132812 104.847656 "/>
<path style=" stroke:none;fill-rule:nonzero;fill:rgb(25.490196%,50.980392%,89.411765%);fill-opacity:1;" d="M 194.265625 191.507812 C 194.257812 200.855469 187.378906 208.773438 178.128906 210.082031 C 168.878906 211.386719 160.078125 205.6875 157.480469 196.707031 C 154.886719 187.726562 159.285156 178.203125 167.804688 174.367188 C 176.320312 170.53125 186.363281 173.550781 191.359375 181.449219 C 193.261719 184.457031 194.269531 187.945312 194.265625 191.507812 Z M 194.265625 191.507812 "/>
<path style=" stroke:none;fill-rule:nonzero;fill:rgb(100%,100%,100%);fill-opacity:1;" d="M 191.359375 181.449219 L 172.835938 199.980469 C 171.671875 198.175781 165.1875 189.796875 165.1875 189.796875 C 166.019531 188.953125 166.90625 188.171875 167.84375 187.449219 L 173.222656 194.625 L 189.191406 178.644531 C 190 179.507812 190.726562 180.449219 191.359375 181.449219 Z M 191.359375 181.449219 "/>
<path style=" stroke:none;fill-rule:nonzero;fill:rgb(25.490196%,50.980392%,89.411765%);fill-opacity:1;" d="M 90.878906 191.507812 C 90.871094 200.855469 83.992188 208.773438 74.742188 210.082031 C 65.492188 211.386719 56.691406 205.6875 54.09375 196.707031 C 51.5 187.726562 55.898438 178.203125 64.417969 174.367188 C 72.9375 170.53125 82.976562 173.550781 87.972656 181.449219 C 89.875 184.457031 90.882812 187.945312 90.878906 191.507812 Z M 90.878906 191.507812 "/>
<path style=" stroke:none;fill-rule:nonzero;fill:rgb(100%,100%,100%);fill-opacity:1;" d="M 87.972656 181.449219 L 69.453125 199.980469 C 68.289062 198.175781 61.800781 189.796875 61.800781 189.796875 C 62.632812 188.953125 63.519531 188.171875 64.457031 187.449219 L 69.835938 194.625 L 85.804688 178.644531 C 86.613281 179.507812 87.339844 180.449219 87.972656 181.449219 Z M 87.972656 181.449219 "/>
<path style=" stroke:none;fill-rule:nonzero;fill:rgb(24.705882%,23.921569%,33.72549%);fill-opacity:1;" d="M 713.449219 499.785156 L 399.320312 499.785156 C 398.867188 499.785156 398.496094 499.417969 398.496094 498.960938 C 398.496094 498.503906 398.867188 498.136719 399.320312 498.136719 L 713.449219 498.136719 C 713.902344 498.136719 714.273438 498.503906 714.273438 498.960938 C 714.273438 499.417969 713.902344 499.785156 713.449219 499.785156 Z M 713.449219 499.785156 "/>
</g>
</svg>
