<?xml version="1.0" encoding="UTF-8"?>
<svg xmlns="http://www.w3.org/2000/svg" xmlns:xlink="http://www.w3.org/1999/xlink" width="794px" height="500px" viewBox="0 0 656 500" version="1.1">
<g id="surface1">
<path style=" stroke:none;fill-rule:nonzero;fill:rgb(25.490196%,50.980392%,89.411765%);fill-opacity:1;" d="M 315.835938 186.078125 C 319.421875 182.125 325.34375 183.28125 329.285156 186.070312 C 334.355469 189.65625 335.804688 196.214844 336.554688 202.023438 C 337.820312 211.859375 338.195312 225.765625 349.347656 229.875 C 354.496094 231.777344 360.394531 230.207031 364.746094 227.121094 C 369.5 223.753906 372.460938 218.570312 374.449219 213.195312 C 376.851562 206.691406 378.246094 199.734375 379.425781 192.917969 C 380.628906 185.949219 381.421875 178.902344 381.777344 171.835938 C 382.125 164.925781 381.898438 158.058594 381.621094 151.148438 C 381.40625 145.757812 381.324219 140.09375 383.148438 134.9375 C 384.988281 129.726562 389.261719 125.765625 394.886719 125.242188 C 400.34375 124.734375 405.964844 127.039062 409.914062 130.753906 C 419.390625 139.671875 419.835938 154.226562 421.953125 166.179688 C 423.066406 172.460938 424.691406 178.816406 428.101562 184.28125 C 430.90625 188.777344 434.800781 192.542969 439.289062 195.339844 C 448.34375 200.980469 459.882812 202.625 469.925781 198.75 C 479.734375 194.96875 487.628906 186.703125 491.046875 176.765625 C 491.890625 174.308594 492.410156 171.773438 492.675781 169.195312 C 492.800781 167.996094 490.925781 168.003906 490.800781 169.195312 C 489.679688 180.15625 482.644531 190.085938 473.007812 195.285156 C 463.089844 200.632812 451.078125 199.957031 441.386719 194.410156 C 436.625 191.683594 432.480469 187.835938 429.601562 183.148438 C 426.109375 177.460938 424.613281 170.828125 423.527344 164.320312 C 421.5625 152.5625 420.671875 139.066406 411.863281 130.039062 C 405.03125 123.039062 392.460938 120.230469 385.121094 128.027344 C 377.5625 136.058594 379.828125 148.992188 380.070312 158.957031 C 380.421875 173.554688 378.917969 188.1875 375.585938 202.402344 C 374.132812 208.589844 372.464844 214.96875 368.820312 220.277344 C 365.492188 225.125 360.046875 228.882812 353.988281 228.824219 C 347.945312 228.765625 343.699219 224.320312 341.554688 219.023438 C 339.292969 213.4375 339.144531 207.398438 338.359375 201.5 C 337.640625 196.085938 336.332031 190.09375 332.273438 186.128906 C 329.117188 183.046875 324.433594 181.066406 319.988281 181.773438 C 317.855469 182.113281 315.960938 183.152344 314.511719 184.75 C 313.703125 185.640625 315.023438 186.972656 315.835938 186.078125 Z M 315.835938 186.078125 "/>
<path style=" stroke:none;fill-rule:nonzero;fill:rgb(94.901961%,94.901961%,94.901961%);fill-opacity:1;" d="M 586.703125 386.53125 C 585.644531 384.753906 581.082031 386.65625 580.242188 385.042969 C 579.40625 383.433594 583.648438 380.980469 586.070312 375.378906 C 586.507812 374.371094 589.261719 368.003906 587.222656 366.039062 C 583.359375 362.316406 565.679688 377.679688 559.496094 372.652344 C 558.136719 371.550781 557.1875 369.347656 553.078125 365.769531 C 551.445312 364.347656 550.457031 363.707031 549.5 363.945312 C 548.140625 364.285156 548.035156 366.101562 546.578125 369.675781 C 544.394531 375.035156 543.105469 374.710938 541.832031 378.988281 C 540.886719 382.160156 541.105469 384.007812 539.992188 384.367188 C 538.421875 384.875 536.972656 381.507812 534.980469 381.808594 C 532.949219 382.117188 531.71875 386.035156 531.332031 388.972656 C 530.601562 394.480469 532.625 398.113281 533.746094 401.933594 C 534.960938 406.085938 535.683594 412.402344 532.871094 421.34375 L 505.035156 499.800781 C 511.183594 483.703125 528.976562 439.570312 536.453125 423.171875 C 538.609375 418.4375 540.996094 413.632812 545.886719 411.738281 C 550.597656 409.914062 557.070312 411.003906 565.316406 409.015625 C 566.28125 408.785156 568.953125 408.101562 569.292969 406.53125 C 569.570312 405.230469 567.996094 404.503906 568.238281 403.285156 C 568.5625 401.652344 571.65625 401.632812 575.457031 399.746094 C 578.132812 398.417969 579.804688 396.835938 581.238281 395.476562 C 581.671875 395.066406 588.105469 388.902344 586.703125 386.53125 Z M 586.703125 386.53125 "/>
<path style=" stroke:none;fill-rule:nonzero;fill:rgb(94.901961%,94.901961%,94.901961%);fill-opacity:1;" d="M 477.1875 427.835938 C 476.007812 427.839844 475.628906 430.628906 474.59375 430.578125 C 473.5625 430.523438 473.582031 427.734375 471.535156 424.925781 C 471.164062 424.421875 468.835938 421.234375 467.285156 421.667969 C 464.34375 422.488281 466.78125 435.601562 462.527344 437.1875 C 461.59375 437.539062 460.242188 437.367188 457.300781 438.351562 C 456.128906 438.746094 455.53125 439.046875 455.371094 439.585938 C 455.144531 440.347656 456.007812 440.925781 457.339844 442.671875 C 459.339844 445.289062 458.808594 445.832031 460.539062 447.6875 C 461.824219 449.066406 462.792969 449.496094 462.648438 450.144531 C 462.441406 451.0625 460.375 450.800781 459.945312 451.867188 C 459.511719 452.953125 461.078125 454.6875 462.40625 455.726562 C 464.898438 457.671875 467.265625 457.726562 469.464844 458.28125 C 471.851562 458.882812 475.160156 460.347656 478.734375 464.308594 L 509.195312 500.613281 C 503.070312 492.953125 486.550781 471.480469 480.664062 463.078125 C 478.964844 460.652344 477.296875 458.097656 477.777344 455.148438 C 478.242188 452.308594 480.644531 449.445312 482.046875 444.820312 C 482.210938 444.28125 482.648438 442.773438 481.976562 442.152344 C 481.417969 441.640625 480.605469 442.203125 480.078125 441.734375 C 479.371094 441.105469 480.253906 439.578125 480.425781 437.167969 C 480.546875 435.46875 480.253906 434.195312 480 433.097656 C 479.921875 432.765625 478.753906 427.828125 477.1875 427.835938 Z M 477.1875 427.835938 "/>
<path style=" stroke:none;fill-rule:nonzero;fill:rgb(94.901961%,94.901961%,94.901961%);fill-opacity:1;" d="M 500.675781 433.109375 L 499.96875 426.773438 L 500.292969 426.292969 C 501.792969 424.074219 502.554688 421.90625 502.566406 419.847656 C 502.566406 419.519531 502.550781 419.191406 502.535156 418.859375 C 502.476562 417.535156 502.398438 415.894531 503.253906 413.980469 C 503.734375 412.910156 505.082031 410.441406 507.109375 410.746094 C 507.65625 410.820312 508.070312 411.074219 508.382812 411.367188 C 508.429688 411.292969 508.476562 411.21875 508.527344 411.140625 C 509.15625 410.175781 509.65625 409.765625 510.140625 409.367188 C 510.507812 409.058594 510.890625 408.746094 511.492188 408 C 511.753906 407.671875 511.960938 407.382812 512.132812 407.140625 C 512.65625 406.410156 513.339844 405.539062 514.550781 405.554688 C 515.839844 405.617188 516.515625 406.683594 516.964844 407.390625 C 517.761719 408.648438 518.125 409.558594 518.367188 410.160156 C 518.453125 410.382812 518.550781 410.628906 518.601562 410.707031 C 519.019531 411.316406 522.398438 410.746094 523.671875 410.539062 C 526.53125 410.058594 529.007812 409.648438 530.027344 411.453125 C 530.757812 412.742188 530.214844 414.449219 528.367188 416.660156 C 527.789062 417.351562 527.175781 417.875 526.632812 418.28125 C 527.082031 418.550781 527.488281 418.964844 527.652344 419.613281 C 528.035156 421.148438 526.714844 422.6875 523.730469 424.191406 C 522.988281 424.570312 521.992188 425.070312 520.589844 425.3125 C 519.933594 425.425781 519.339844 425.453125 518.832031 425.46875 C 518.820312 425.761719 518.753906 426.082031 518.574219 426.40625 C 518.050781 427.371094 516.957031 427.832031 515.3125 427.71875 C 513.5 427.625 512.011719 427.28125 510.695312 426.976562 C 509.546875 426.714844 508.558594 426.492188 507.78125 426.542969 C 506.34375 426.660156 505.230469 427.8125 503.929688 429.308594 Z M 500.675781 433.109375 "/>
<path style=" stroke:none;fill-rule:nonzero;fill:rgb(94.901961%,94.901961%,94.901961%);fill-opacity:1;" d="M 503.96875 395.390625 L 498.023438 397.683594 L 497.476562 397.492188 C 494.949219 396.605469 492.65625 396.414062 490.664062 396.925781 C 490.347656 397.007812 490.035156 397.105469 489.714844 397.207031 C 488.453125 397.601562 486.882812 398.089844 484.816406 397.75 C 483.660156 397.554688 480.929688 396.875 480.710938 394.835938 C 480.648438 394.289062 480.785156 393.828125 480.988281 393.449219 C 480.90625 393.421875 480.824219 393.394531 480.734375 393.367188 C 479.640625 393 479.117188 392.621094 478.609375 392.257812 C 478.21875 391.976562 477.816406 391.6875 476.945312 391.296875 C 476.5625 391.125 476.230469 391 475.953125 390.894531 C 475.113281 390.570312 474.097656 390.128906 473.804688 388.957031 C 473.539062 387.691406 474.398438 386.765625 474.96875 386.15625 C 475.984375 385.0625 476.769531 384.480469 477.292969 384.09375 C 477.484375 383.953125 477.695312 383.796875 477.757812 383.726562 C 478.246094 383.171875 476.832031 380.042969 476.308594 378.863281 C 475.121094 376.21875 474.09375 373.925781 475.582031 372.480469 C 476.644531 371.449219 478.433594 371.539062 481.039062 372.769531 C 481.851562 373.152344 482.511719 373.613281 483.046875 374.035156 C 483.195312 373.53125 483.492188 373.035156 484.078125 372.710938 C 485.464844 371.949219 487.285156 372.835938 489.5 375.34375 C 490.050781 375.964844 490.789062 376.804688 491.378906 378.097656 C 491.652344 378.707031 491.832031 379.273438 491.976562 379.761719 C 492.261719 379.695312 492.585938 379.683594 492.949219 379.773438 C 494.011719 380.035156 494.734375 380.976562 495.042969 382.597656 C 495.410156 384.371094 495.457031 385.902344 495.496094 387.25 C 495.535156 388.429688 495.566406 389.441406 495.816406 390.179688 C 496.292969 391.546875 497.691406 392.328125 499.46875 393.207031 Z M 503.96875 395.390625 "/>
<path style=" stroke:none;fill-rule:nonzero;fill:rgb(94.901961%,94.901961%,94.901961%);fill-opacity:1;" d="M 500.675781 376.726562 L 499.96875 370.390625 L 500.292969 369.910156 C 501.792969 367.691406 502.554688 365.519531 502.566406 363.460938 C 502.566406 363.136719 502.550781 362.808594 502.535156 362.472656 C 502.476562 361.152344 502.398438 359.511719 503.253906 357.59375 C 503.734375 356.527344 505.082031 354.054688 507.109375 354.363281 C 507.65625 354.4375 508.070312 354.6875 508.382812 354.984375 C 508.429688 354.910156 508.476562 354.835938 508.527344 354.757812 C 509.15625 353.792969 509.65625 353.378906 510.140625 352.984375 C 510.507812 352.675781 510.890625 352.363281 511.492188 351.613281 C 511.753906 351.289062 511.960938 351 512.132812 350.757812 C 512.65625 350.027344 513.339844 349.15625 514.550781 349.171875 C 515.839844 349.230469 516.515625 350.300781 516.964844 351.007812 C 517.761719 352.265625 518.125 353.175781 518.367188 353.777344 C 518.453125 353.996094 518.550781 354.246094 518.601562 354.324219 C 519.019531 354.933594 522.398438 354.363281 523.671875 354.152344 C 526.53125 353.675781 529.007812 353.265625 530.027344 355.070312 C 530.757812 356.359375 530.214844 358.066406 528.367188 360.277344 C 527.789062 360.964844 527.175781 361.488281 526.632812 361.898438 C 527.082031 362.167969 527.488281 362.582031 527.652344 363.230469 C 528.035156 364.765625 526.714844 366.304688 523.730469 367.808594 C 522.988281 368.1875 521.992188 368.6875 520.589844 368.929688 C 519.933594 369.042969 519.339844 369.070312 518.832031 369.085938 C 518.820312 369.378906 518.753906 369.695312 518.574219 370.023438 C 518.050781 370.988281 516.957031 371.445312 515.3125 371.335938 C 513.5 371.242188 512.011719 370.894531 510.695312 370.59375 C 509.546875 370.332031 508.558594 370.105469 507.78125 370.160156 C 506.34375 370.273438 505.230469 371.429688 503.929688 372.925781 Z M 500.675781 376.726562 "/>
<path style=" stroke:none;fill-rule:nonzero;fill:rgb(94.901961%,94.901961%,94.901961%);fill-opacity:1;" d="M 507.15625 499.699219 L 505.828125 498.867188 L 505.507812 497.335938 L 505.828125 498.867188 L 504.28125 499.042969 C 504.257812 498.898438 504.175781 498.570312 504.046875 498.054688 C 503.355469 495.21875 501.242188 486.601562 499.480469 473.023438 C 498.253906 463.546875 497.558594 453.804688 497.414062 444.0625 C 497.269531 434.304688 497.730469 426.914062 498.101562 420.976562 C 498.378906 416.5 498.71875 412.234375 499.054688 408.082031 C 499.941406 396.984375 500.777344 386.5 500.15625 374.894531 C 500.015625 372.304688 499.726562 366.910156 496.578125 361.171875 C 494.75 357.84375 492.234375 354.886719 489.097656 352.390625 L 491.046875 349.9375 C 494.511719 352.699219 497.296875 355.972656 499.324219 359.667969 C 502.816406 366.027344 503.132812 371.90625 503.28125 374.730469 C 503.914062 386.539062 503.070312 397.125 502.175781 408.328125 C 501.84375 412.46875 501.503906 416.714844 501.226562 421.175781 C 500.859375 427.054688 500.402344 434.378906 500.542969 444.011719 C 500.683594 453.640625 501.371094 463.261719 502.585938 472.621094 C 504.324219 486.023438 506.40625 494.515625 507.089844 497.304688 C 507.453125 498.796875 507.53125 499.109375 507.15625 499.699219 Z M 507.15625 499.699219 "/>
<path style=" stroke:none;fill-rule:nonzero;fill:rgb(94.901961%,94.901961%,94.901961%);fill-opacity:1;" d="M 483.355469 357.367188 C 483.226562 357.367188 483.097656 357.367188 482.964844 357.355469 C 480.296875 357.214844 477.828125 355.617188 475.625 352.613281 C 474.589844 351.199219 474.0625 349.585938 473.007812 346.371094 C 472.84375 345.875 472.046875 343.363281 471.566406 339.902344 C 471.25 337.640625 471.289062 336.695312 471.734375 335.859375 C 472.234375 334.929688 473.039062 334.28125 473.941406 333.84375 C 473.902344 333.546875 473.933594 333.238281 474.066406 332.921875 C 474.597656 331.617188 476.015625 331.785156 476.785156 331.871094 C 477.171875 331.917969 477.65625 331.980469 478.179688 331.953125 C 479.003906 331.914062 479.445312 331.671875 480.113281 331.304688 C 480.753906 330.953125 481.550781 330.515625 482.734375 330.273438 C 485.0625 329.785156 487.015625 330.445312 487.660156 330.664062 C 491.046875 331.792969 492.714844 334.425781 494.648438 337.476562 C 495.035156 338.089844 496.355469 340.316406 497.230469 343.367188 C 497.859375 345.570312 497.769531 346.550781 497.582031 347.277344 C 497.195312 348.773438 496.285156 349.628906 493.976562 351.519531 C 491.5625 353.5 490.351562 354.492188 489.3125 355.09375 C 486.890625 356.492188 485.371094 357.367188 483.355469 357.367188 Z M 483.355469 357.367188 "/>
<path style=" stroke:none;fill-rule:nonzero;fill:rgb(90.196078%,90.196078%,90.196078%);fill-opacity:1;" d="M 417.105469 109.167969 L 374.34375 109.167969 C 373.265625 109.167969 372.390625 108.292969 372.390625 107.214844 C 372.390625 106.136719 373.265625 105.257812 374.34375 105.257812 L 417.105469 105.257812 C 418.183594 105.257812 419.058594 106.136719 419.058594 107.214844 C 419.058594 108.292969 418.183594 109.167969 417.105469 109.167969 Z M 417.105469 109.167969 "/>
<path style=" stroke:none;fill-rule:nonzero;fill:rgb(90.196078%,90.196078%,90.196078%);fill-opacity:1;" d="M 483.328125 222.917969 L 440.570312 222.917969 C 439.492188 222.917969 438.613281 222.042969 438.613281 220.964844 C 438.613281 219.886719 439.492188 219.007812 440.570312 219.007812 L 483.328125 219.007812 C 484.40625 219.007812 485.285156 219.886719 485.285156 220.964844 C 485.285156 222.042969 484.40625 222.917969 483.328125 222.917969 Z M 483.328125 222.917969 "/>
<path style=" stroke:none;fill-rule:nonzero;fill:rgb(90.196078%,90.196078%,90.196078%);fill-opacity:1;" d="M 518.316406 300.417969 L 475.554688 300.417969 C 474.476562 300.417969 473.601562 299.542969 473.601562 298.464844 C 473.601562 297.386719 474.476562 296.507812 475.554688 296.507812 L 518.316406 296.507812 C 519.394531 296.507812 520.269531 297.386719 520.269531 298.464844 C 520.269531 299.542969 519.394531 300.417969 518.316406 300.417969 Z M 518.316406 300.417969 "/>
<path style=" stroke:none;fill-rule:nonzero;fill:rgb(90.196078%,90.196078%,90.196078%);fill-opacity:1;" d="M 323.390625 66.667969 L 280.628906 66.667969 C 279.550781 66.667969 278.675781 65.792969 278.675781 64.714844 C 278.675781 63.636719 279.550781 62.757812 280.628906 62.757812 L 323.390625 62.757812 C 324.46875 62.757812 325.34375 63.636719 325.34375 64.714844 C 325.34375 65.792969 324.46875 66.667969 323.390625 66.667969 Z M 323.390625 66.667969 "/>
<path style=" stroke:none;fill-rule:nonzero;fill:rgb(80%,80%,80%);fill-opacity:1;" d="M 0 498.242188 C 0 499.066406 0.664062 499.730469 1.488281 499.730469 L 654.101562 499.730469 C 654.925781 499.730469 655.585938 499.066406 655.585938 498.242188 C 655.585938 497.417969 654.925781 496.753906 654.101562 496.753906 L 1.488281 496.753906 C 0.664062 496.753906 0 497.417969 0 498.242188 Z M 0 498.242188 "/>
<path style=" stroke:none;fill-rule:nonzero;fill:rgb(90.196078%,90.196078%,90.196078%);fill-opacity:1;" d="M 496.371094 277.726562 L 302.570312 277.726562 C 301.878906 277.726562 301.320312 277.164062 301.320312 276.476562 L 301.320312 91.476562 C 301.320312 90.785156 301.878906 90.226562 302.570312 90.226562 C 303.257812 90.226562 303.820312 90.785156 303.820312 91.476562 L 303.820312 166.960938 C 303.820312 226.753906 352.273438 275.226562 412.042969 275.226562 L 496.371094 275.226562 C 497.0625 275.226562 497.621094 275.785156 497.621094 276.476562 C 497.621094 277.164062 497.0625 277.726562 496.371094 277.726562 Z M 496.371094 277.726562 "/>
<path style=" stroke:none;fill-rule:nonzero;fill:rgb(90.196078%,90.196078%,90.196078%);fill-opacity:1;" d="M 343.382812 203.375 L 300.621094 203.375 C 299.542969 203.375 298.667969 202.496094 298.667969 201.417969 C 298.667969 200.339844 299.542969 199.460938 300.621094 199.460938 L 343.382812 199.460938 C 344.460938 199.460938 345.335938 200.339844 345.335938 201.417969 C 345.335938 202.496094 344.460938 203.375 343.382812 203.375 Z M 343.382812 203.375 "/>
<path style=" stroke:none;fill-rule:nonzero;fill:rgb(100%,71.372549%,71.372549%);fill-opacity:1;" d="M 300.984375 208.941406 C 307.765625 206.699219 312.109375 201.382812 310.683594 197.066406 C 309.253906 192.75 302.601562 191.066406 295.820312 193.308594 C 293.097656 194.167969 290.621094 195.664062 288.597656 197.675781 L 259.984375 207.53125 L 264.890625 220.867188 L 292.578125 209.734375 C 295.402344 210.144531 298.285156 209.871094 300.984375 208.941406 Z M 300.984375 208.941406 "/>
<path style=" stroke:none;fill-rule:nonzero;fill:rgb(100%,71.372549%,71.372549%);fill-opacity:1;" d="M 153.898438 285.359375 C 154.132812 292.5 158.003906 298.171875 162.542969 298.023438 C 167.085938 297.875 170.582031 291.964844 170.347656 284.824219 C 170.292969 281.96875 169.558594 279.167969 168.199219 276.65625 L 166.839844 246.414062 L 152.664062 247.355469 L 155.511719 277.070312 C 154.320312 279.664062 153.769531 282.507812 153.898438 285.359375 Z M 153.898438 285.359375 "/>
<path style=" stroke:none;fill-rule:nonzero;fill:rgb(100%,71.372549%,71.372549%);fill-opacity:1;" d="M 186.621094 489.140625 L 199.269531 489.136719 L 202.511719 440 L 186.617188 440.324219 Z M 186.621094 489.140625 "/>
<path style=" stroke:none;fill-rule:nonzero;fill:rgb(18.431373%,18.039216%,25.490196%);fill-opacity:1;" d="M 229.964844 488.851562 C 230.359375 489.515625 230.566406 491.65625 230.566406 492.429688 C 230.566406 494.800781 228.644531 496.726562 226.273438 496.726562 L 187.09375 496.726562 C 185.476562 496.726562 184.164062 495.414062 184.164062 493.792969 L 184.164062 492.164062 C 184.164062 492.164062 182.226562 487.257812 186.21875 481.214844 C 186.21875 481.214844 191.175781 485.945312 198.585938 478.535156 L 200.773438 474.574219 L 216.589844 486.148438 L 225.359375 487.226562 C 227.277344 487.460938 228.976562 487.191406 229.964844 488.851562 Z M 229.964844 488.851562 "/>
<path style=" stroke:none;fill-rule:nonzero;fill:rgb(100%,71.372549%,71.372549%);fill-opacity:1;" d="M 216.609375 489.140625 L 229.261719 489.136719 L 232.5 440 L 216.605469 440.324219 Z M 216.609375 489.140625 "/>
<path style=" stroke:none;fill-rule:nonzero;fill:rgb(18.431373%,18.039216%,25.490196%);fill-opacity:1;" d="M 259.953125 488.851562 C 260.347656 489.515625 260.554688 491.65625 260.554688 492.429688 C 260.554688 494.800781 258.632812 496.726562 256.261719 496.726562 L 217.082031 496.726562 C 215.464844 496.726562 214.152344 495.414062 214.152344 493.792969 L 214.152344 492.164062 C 214.152344 492.164062 212.214844 487.257812 216.207031 481.214844 C 216.207031 481.214844 221.164062 485.945312 228.574219 478.535156 L 230.761719 474.574219 L 246.578125 486.148438 L 255.347656 487.226562 C 257.265625 487.460938 258.964844 487.191406 259.953125 488.851562 Z M 259.953125 488.851562 "/>
<path style=" stroke:none;fill-rule:nonzero;fill:rgb(100%,71.372549%,71.372549%);fill-opacity:1;" d="M 212.589844 104.527344 C 212.589844 114.808594 204.261719 123.144531 193.980469 123.144531 C 183.703125 123.144531 175.371094 114.808594 175.371094 104.527344 C 175.371094 94.246094 183.703125 85.910156 193.980469 85.910156 C 204.261719 85.910156 212.589844 94.246094 212.589844 104.527344 Z M 212.589844 104.527344 "/>
<path style=" stroke:none;fill-rule:nonzero;fill:rgb(18.431373%,18.039216%,25.490196%);fill-opacity:1;" d="M 168.234375 259.375 L 176.980469 384.375 L 181.976562 468.125 L 205.71875 466.875 L 203.21875 375.625 L 208.21875 319.375 L 215.714844 466.875 L 234.609375 466.875 L 241.957031 260.625 L 201.347656 255 Z M 168.234375 259.375 "/>
<path style=" stroke:none;fill-rule:nonzero;fill:rgb(18.431373%,18.039216%,25.490196%);fill-opacity:1;" d="M 200.722656 119.375 C 195.429688 124.472656 183.195312 121.09375 176.980469 119.375 C 173.558594 118.429688 171.492188 117.457031 170.734375 115.625 C 170.203125 114.351562 170.503906 113.144531 169.484375 110.625 C 168.886719 109.148438 168.570312 109.039062 168.234375 108.125 C 167.296875 105.578125 168.597656 103.3125 169.484375 100.625 C 171.328125 95.019531 169.125 94.390625 170.734375 90.625 C 173.148438 84.964844 179.722656 82.664062 181.976562 81.875 C 186.1875 80.402344 189.695312 80.558594 190.726562 80.625 C 197.316406 81.058594 201.722656 84.441406 203.21875 85.625 C 206.253906 88.019531 207.742188 90.554688 210.71875 95.625 C 213.308594 100.035156 213.496094 101.730469 213.214844 103.125 C 212.789062 105.253906 211.566406 105.261719 210.71875 108.125 C 209.753906 111.375 210.847656 113.011719 209.46875 114.375 C 208.535156 115.296875 207.664062 114.914062 205.71875 115.625 C 203.039062 116.605469 201.71875 118.414062 200.722656 119.375 Z M 200.722656 119.375 "/>
<path style=" stroke:none;fill-rule:nonzero;fill:rgb(18.431373%,18.039216%,25.490196%);fill-opacity:1;" d="M 215.714844 138.125 C 215.714844 138.125 196.972656 114.375 173.230469 123.125 L 165.542969 138.125 L 162.972656 140.558594 C 152.199219 150.761719 147.183594 165.648438 149.589844 180.296875 L 160.738281 248.125 C 160.738281 248.125 159.488281 274.375 168.234375 281.875 C 168.234375 281.875 180.730469 258.125 210.71875 269.375 C 240.707031 280.625 246.953125 274.375 246.953125 274.375 L 236.957031 203.125 Z M 215.714844 138.125 "/>
<path style=" stroke:none;fill-rule:nonzero;fill:rgb(18.431373%,18.039216%,25.490196%);fill-opacity:1;" d="M 209.46875 141.875 L 203.21875 155.625 L 226.960938 235.625 L 291.9375 211.875 L 283.191406 196.875 L 251.953125 205.625 C 251.953125 205.625 228.210938 135.625 209.46875 141.875 Z M 209.46875 141.875 "/>
<path style=" stroke:none;fill-rule:nonzero;fill:rgb(18.431373%,18.039216%,25.490196%);fill-opacity:1;" d="M 165.109375 267.5 L 151.363281 267.5 L 148.867188 167.5 L 165.109375 201.25 Z M 165.109375 267.5 "/>
<path style=" stroke:none;fill-rule:nonzero;fill:rgb(24.705882%,23.921569%,33.72549%);fill-opacity:1;" d="M 321.300781 185.625 C 321.300781 188.730469 318.78125 191.25 315.675781 191.25 C 312.570312 191.25 310.054688 188.730469 310.054688 185.625 C 310.054688 182.519531 312.570312 180 315.675781 180 C 318.78125 180 321.300781 182.519531 321.300781 185.625 Z M 321.300781 185.625 "/>
<path style=" stroke:none;fill-rule:nonzero;fill:rgb(24.705882%,23.921569%,33.72549%);fill-opacity:1;" d="M 358.785156 229.375 C 358.785156 232.480469 356.269531 235 353.164062 235 C 350.058594 235 347.539062 232.480469 347.539062 229.375 C 347.539062 226.269531 350.058594 223.75 353.164062 223.75 C 356.269531 223.75 358.785156 226.269531 358.785156 229.375 Z M 358.785156 229.375 "/>
<path style=" stroke:none;fill-rule:nonzero;fill:rgb(24.705882%,23.921569%,33.72549%);fill-opacity:1;" d="M 401.269531 124.375 C 401.269531 127.480469 398.753906 130 395.648438 130 C 392.542969 130 390.023438 127.480469 390.023438 124.375 C 390.023438 121.269531 392.542969 118.75 395.648438 118.75 C 398.753906 118.75 401.269531 121.269531 401.269531 124.375 Z M 401.269531 124.375 "/>
<path style=" stroke:none;fill-rule:nonzero;fill:rgb(24.705882%,23.921569%,33.72549%);fill-opacity:1;" d="M 463.746094 199.375 C 463.746094 202.480469 461.230469 205 458.125 205 C 455.019531 205 452.5 202.480469 452.5 199.375 C 452.5 196.269531 455.019531 193.75 458.125 193.75 C 461.230469 193.75 463.746094 196.269531 463.746094 199.375 Z M 463.746094 199.375 "/>
<path style=" stroke:none;fill-rule:nonzero;fill:rgb(24.705882%,23.921569%,33.72549%);fill-opacity:1;" d="M 499.980469 169.375 C 499.980469 172.480469 497.464844 175 494.359375 175 C 491.253906 175 488.738281 172.480469 488.738281 169.375 C 488.738281 166.269531 491.253906 163.75 494.359375 163.75 C 497.464844 163.75 499.980469 166.269531 499.980469 169.375 Z M 499.980469 169.375 "/>
<path style=" stroke:none;fill-rule:nonzero;fill:rgb(24.705882%,23.921569%,33.72549%);fill-opacity:1;" d="M 483.648438 50.03125 L 493.929688 54.902344 C 489.714844 49.015625 486.078125 39.816406 484.132812 32.5 C 480.839844 39.316406 475.527344 47.65625 470.269531 52.640625 L 481.140625 49.84375 C 474.441406 82.679688 449.253906 106.25 420.40625 106.25 L 420 107.4375 C 450.128906 107.4375 476.808594 84.191406 483.648438 50.03125 Z M 483.648438 50.03125 "/>
<path style=" stroke:none;fill-rule:nonzero;fill:rgb(25.490196%,50.980392%,89.411765%);fill-opacity:1;" d="M 452.558594 0 L 517.535156 0 C 520.292969 0 522.535156 2.242188 522.535156 5 C 522.535156 7.757812 520.292969 10 517.535156 10 L 452.558594 10 C 449.804688 10 447.5625 7.757812 447.5625 5 C 447.5625 2.242188 449.804688 0 452.558594 0 Z M 452.558594 0 "/>
<path style=" stroke:none;fill-rule:nonzero;fill:rgb(90.196078%,90.196078%,90.196078%);fill-opacity:1;" d="M 496.457031 287.957031 C 495.769531 287.957031 495.078125 287.804688 494.421875 287.492188 C 492.796875 286.730469 491.777344 285.207031 491.695312 283.414062 L 491.023438 268.878906 C 490.933594 267.015625 491.910156 265.316406 493.5625 264.449219 C 495.21875 263.582031 497.167969 263.753906 498.652344 264.886719 L 508.542969 272.453125 C 509.734375 273.363281 510.414062 274.746094 510.410156 276.242188 C 510.40625 277.742188 509.714844 279.117188 508.519531 280.019531 L 499.300781 286.984375 C 498.449219 287.625 497.460938 287.957031 496.457031 287.957031 Z M 496.457031 287.957031 "/>
<path style=" stroke:none;fill-rule:nonzero;fill:rgb(90.196078%,90.196078%,90.196078%);fill-opacity:1;" d="M 314.0625 92.6875 C 314.0625 93.371094 313.910156 94.0625 313.601562 94.722656 C 312.835938 96.347656 311.3125 97.367188 309.519531 97.449219 L 294.992188 98.121094 C 293.128906 98.210938 291.433594 97.234375 290.566406 95.582031 C 289.699219 93.925781 289.867188 91.976562 291 90.492188 L 298.566406 80.59375 C 299.476562 79.402344 300.855469 78.722656 302.351562 78.726562 C 303.851562 78.734375 305.226562 79.421875 306.128906 80.617188 L 313.089844 89.839844 C 313.734375 90.691406 314.0625 91.683594 314.0625 92.6875 Z M 314.0625 92.6875 "/>
<path style=" stroke:none;fill-rule:nonzero;fill:rgb(25.490196%,50.980392%,89.411765%);fill-opacity:1;" d="M 395.183594 79.816406 C 387.789062 78.042969 379.882812 79.648438 373.5625 83.828125 C 366.929688 88.207031 362.539062 95.226562 361.054688 103 C 357.988281 119.035156 367.355469 135.058594 382.160156 141.441406 C 397.71875 148.152344 416.234375 143.648438 427.535156 131.195312 C 433.136719 125.023438 436.636719 117.210938 437.691406 108.953125 C 438.730469 100.820312 437.542969 91.433594 432.621094 84.644531 C 427.734375 77.90625 419.601562 75.648438 411.746094 74.542969 C 404.125 73.472656 394.011719 73.007812 389.890625 81.078125 C 389.105469 82.617188 388.738281 84.273438 388.824219 86 C 388.886719 87.203125 390.757812 87.207031 390.699219 86 C 390.507812 82.226562 393.023438 79.074219 396.246094 77.378906 C 399.980469 75.414062 404.488281 75.578125 408.5625 76.015625 C 415.917969 76.808594 424.265625 78.21875 429.570312 83.871094 C 434.855469 89.5 436.4375 98.078125 436.109375 105.550781 C 435.769531 113.347656 433.082031 121.027344 428.375 127.265625 C 419.085938 139.574219 402.835938 145.429688 387.882812 141.453125 C 373.316406 137.578125 373.125 128.929688 373.367188 113.613281 C 373.496094 105.445312 365.78125 92.582031 372.078125 87.257812 C 378.246094 82.046875 386.792969 79.734375 394.6875 81.625 C 395.859375 81.90625 396.359375 80.097656 395.183594 79.816406 Z M 395.183594 79.816406 "/>
</g>
</svg>
