<?xml version="1.0" encoding="UTF-8"?>
<svg xmlns="http://www.w3.org/2000/svg" xmlns:xlink="http://www.w3.org/1999/xlink" width="794px" height="500px" viewBox="0 0 820 500" version="1.1">
<g id="surface1">
<path style=" stroke:none;fill-rule:nonzero;fill:rgb(90.196078%,90.196078%,90.196078%);fill-opacity:1;" d="M 34.644531 456.183594 C 41.664062 458.652344 49.464844 457.28125 55.21875 452.558594 C 62.421875 446.507812 64.683594 436.542969 66.519531 427.3125 L 71.957031 400.007812 L 60.574219 407.851562 C 52.386719 413.488281 44.019531 419.308594 38.351562 427.476562 C 32.683594 435.648438 30.210938 446.796875 34.761719 455.636719 "/>
<path style=" stroke:none;fill-rule:nonzero;fill:rgb(94.901961%,94.901961%,94.901961%);fill-opacity:1;" d="M 36.402344 491.140625 C 34.96875 480.699219 33.496094 470.121094 34.503906 459.566406 C 35.394531 450.191406 38.253906 441.035156 44.074219 433.527344 C 47.164062 429.550781 50.921875 426.140625 55.183594 423.457031 C 56.292969 422.753906 57.316406 424.515625 56.207031 425.214844 C 48.839844 429.875 43.136719 436.753906 39.929688 444.867188 C 36.382812 453.886719 35.816406 463.71875 36.425781 473.300781 C 36.792969 479.09375 37.578125 484.851562 38.367188 490.597656 C 38.496094 491.140625 38.183594 491.6875 37.65625 491.851562 C 37.113281 491.996094 36.554688 491.679688 36.402344 491.140625 Z M 36.402344 491.140625 "/>
<path style=" stroke:none;fill-rule:nonzero;fill:rgb(90.196078%,90.196078%,90.196078%);fill-opacity:1;" d="M 46.714844 474.382812 C 49.726562 478.964844 54.90625 481.640625 60.378906 481.441406 C 67.300781 481.113281 73.066406 476.285156 78.253906 471.699219 L 93.609375 458.132812 L 83.449219 457.648438 C 76.140625 457.296875 68.644531 456.96875 61.683594 459.226562 C 54.722656 461.484375 48.304688 466.90625 47.03125 474.117188 "/>
<path style=" stroke:none;fill-rule:nonzero;fill:rgb(94.901961%,94.901961%,94.901961%);fill-opacity:1;" d="M 32.351562 497.144531 C 39.25 484.933594 47.25 471.363281 61.546875 467.027344 C 65.519531 465.824219 69.6875 465.394531 73.824219 465.757812 C 75.128906 465.871094 74.804688 467.878906 73.5 467.769531 C 66.566406 467.191406 59.648438 469.023438 53.90625 472.953125 C 48.382812 476.71875 44.078125 481.949219 40.4375 487.496094 C 38.207031 490.894531 36.210938 494.4375 34.210938 497.972656 C 33.574219 499.105469 31.707031 498.289062 32.351562 497.144531 Z M 32.351562 497.144531 "/>
<path style=" stroke:none;fill-rule:nonzero;fill:rgb(90.196078%,90.196078%,90.196078%);fill-opacity:1;" d="M 154.191406 15.648438 L 724.640625 15.648438 L 724.640625 286.476562 L 154.191406 286.476562 Z M 154.191406 15.648438 "/>
<path style=" stroke:none;fill-rule:nonzero;fill:rgb(100%,100%,100%);fill-opacity:1;" d="M 170.503906 38.871094 L 708.332031 38.871094 L 708.332031 264.832031 L 170.503906 264.832031 Z M 170.503906 38.871094 "/>
<path style=" stroke:none;fill-rule:nonzero;fill:rgb(25.490196%,50.980392%,89.411765%);fill-opacity:1;" d="M 153.949219 0 L 724.398438 0 L 724.398438 24.246094 L 153.949219 24.246094 Z M 153.949219 0 "/>
<path style=" stroke:none;fill-rule:nonzero;fill:rgb(100%,100%,100%);fill-opacity:1;" d="M 176.449219 11.214844 C 176.449219 13.699219 174.4375 15.710938 171.957031 15.710938 C 169.476562 15.710938 167.464844 13.699219 167.464844 11.214844 C 167.464844 8.734375 169.476562 6.722656 171.957031 6.722656 C 174.4375 6.722656 176.449219 8.734375 176.449219 11.214844 Z M 176.449219 11.214844 "/>
<path style=" stroke:none;fill-rule:nonzero;fill:rgb(100%,100%,100%);fill-opacity:1;" d="M 193.5 11.214844 C 193.5 13.699219 191.488281 15.710938 189.007812 15.710938 C 186.527344 15.710938 184.515625 13.699219 184.515625 11.214844 C 184.515625 8.734375 186.527344 6.722656 189.007812 6.722656 C 191.488281 6.722656 193.5 8.734375 193.5 11.214844 Z M 193.5 11.214844 "/>
<path style=" stroke:none;fill-rule:nonzero;fill:rgb(100%,100%,100%);fill-opacity:1;" d="M 210.550781 11.214844 C 210.550781 13.699219 208.539062 15.710938 206.058594 15.710938 C 203.578125 15.710938 201.566406 13.699219 201.566406 11.214844 C 201.566406 8.734375 203.578125 6.722656 206.058594 6.722656 C 208.539062 6.722656 210.550781 8.734375 210.550781 11.214844 Z M 210.550781 11.214844 "/>
<path style=" stroke:none;fill-rule:nonzero;fill:rgb(89.411765%,89.411765%,89.411765%);fill-opacity:1;" d="M 297.527344 211.960938 L 569.351562 211.960938 L 569.351562 165.347656 C 569.269531 155.417969 565.191406 145.941406 558.039062 139.058594 L 557.964844 138.988281 C 553.109375 134.113281 536.882812 121.742188 520.097656 122.792969 C 511.230469 123.34375 503.636719 127.621094 497.53125 135.5 C 478.527344 160.042969 453.566406 151.757812 440.375 144.636719 C 428.753906 138.359375 416.882812 135.410156 405.09375 135.878906 C 388.582031 136.527344 365.339844 142.613281 348.390625 167.9375 C 341.917969 177.601562 327.839844 190.722656 297.527344 198.433594 Z M 297.527344 211.960938 "/>
<path style=" stroke:none;fill-rule:nonzero;fill:rgb(24.705882%,23.921569%,33.72549%);fill-opacity:1;" d="M 584.734375 213.046875 L 298.050781 213.046875 C 297.558594 213.046875 297.15625 212.644531 297.15625 212.148438 L 297.15625 74.671875 C 297.15625 74.175781 297.558594 73.773438 298.050781 73.773438 C 298.546875 73.773438 298.949219 74.175781 298.949219 74.671875 L 298.949219 211.25 L 584.734375 211.25 C 585.226562 211.25 585.628906 211.652344 585.628906 212.148438 C 585.628906 212.644531 585.226562 213.046875 584.734375 213.046875 Z M 584.734375 213.046875 "/>
<path style=" stroke:none;fill-rule:nonzero;fill:rgb(24.705882%,23.921569%,33.72549%);fill-opacity:1;" d="M 350.824219 160.179688 L 352.582031 160.179688 L 352.582031 211.785156 L 350.824219 211.785156 Z M 350.824219 160.179688 "/>
<path style=" stroke:none;fill-rule:nonzero;fill:rgb(24.705882%,23.921569%,33.72549%);fill-opacity:1;" d="M 403.503906 136.078125 L 405.265625 136.078125 L 405.265625 211.785156 L 403.503906 211.785156 Z M 403.503906 136.078125 "/>
<path style=" stroke:none;fill-rule:nonzero;fill:rgb(24.705882%,23.921569%,33.72549%);fill-opacity:1;" d="M 456.292969 151.925781 L 458.054688 151.925781 L 458.054688 211.785156 L 456.292969 211.785156 Z M 456.292969 151.925781 "/>
<path style=" stroke:none;fill-rule:nonzero;fill:rgb(24.705882%,23.921569%,33.72549%);fill-opacity:1;" d="M 509.085938 122.875 L 510.84375 122.875 L 510.84375 211.785156 L 509.085938 211.785156 Z M 509.085938 122.875 "/>
<path style=" stroke:none;fill-rule:nonzero;fill:rgb(24.705882%,23.921569%,33.72549%);fill-opacity:1;" d="M 561.875 143.121094 L 563.632812 143.121094 L 563.632812 211.785156 L 561.875 211.785156 Z M 561.875 143.121094 "/>
<path style=" stroke:none;fill-rule:nonzero;fill:rgb(25.490196%,50.980392%,89.411765%);fill-opacity:1;" d="M 409.875 137.292969 C 409.875 140.265625 407.464844 142.679688 404.492188 142.679688 C 401.519531 142.679688 399.109375 140.265625 399.109375 137.292969 C 399.109375 134.316406 401.519531 131.90625 404.492188 131.90625 C 407.464844 131.90625 409.875 134.316406 409.875 137.292969 Z M 409.875 137.292969 "/>
<path style=" stroke:none;fill-rule:nonzero;fill:rgb(25.490196%,50.980392%,89.411765%);fill-opacity:1;" d="M 515.457031 123.207031 C 515.457031 126.183594 513.046875 128.59375 510.074219 128.59375 C 507.101562 128.59375 504.691406 126.183594 504.691406 123.207031 C 504.691406 120.234375 507.101562 117.824219 510.074219 117.824219 C 513.046875 117.824219 515.457031 120.234375 515.457031 123.207031 Z M 515.457031 123.207031 "/>
<path style=" stroke:none;fill-rule:nonzero;fill:rgb(25.490196%,50.980392%,89.411765%);fill-opacity:1;" d="M 462.667969 152.257812 C 462.667969 155.230469 460.257812 157.644531 457.285156 157.644531 C 454.308594 157.644531 451.898438 155.230469 451.898438 152.257812 C 451.898438 149.28125 454.308594 146.871094 457.285156 146.871094 C 460.257812 146.871094 462.667969 149.28125 462.667969 152.257812 Z M 462.667969 152.257812 "/>
<path style=" stroke:none;fill-rule:nonzero;fill:rgb(25.490196%,50.980392%,89.411765%);fill-opacity:1;" d="M 357.085938 160.179688 C 357.085938 163.15625 354.675781 165.566406 351.703125 165.566406 C 348.730469 165.566406 346.320312 163.15625 346.320312 160.179688 C 346.320312 157.207031 348.730469 154.792969 351.703125 154.792969 C 354.675781 154.792969 357.085938 157.207031 357.085938 160.179688 Z M 357.085938 160.179688 "/>
<path style=" stroke:none;fill-rule:nonzero;fill:rgb(25.490196%,50.980392%,89.411765%);fill-opacity:1;" d="M 568.246094 142.574219 C 568.246094 145.550781 565.835938 147.960938 562.863281 147.960938 C 559.890625 147.960938 557.480469 145.550781 557.480469 142.574219 C 557.480469 139.601562 559.890625 137.1875 562.863281 137.1875 C 565.835938 137.1875 568.246094 139.601562 568.246094 142.574219 Z M 568.246094 142.574219 "/>
<path style=" stroke:none;fill-rule:nonzero;fill:rgb(100%,71.372549%,71.372549%);fill-opacity:1;" d="M 120.460938 488.96875 L 131.246094 488.96875 L 136.378906 447.34375 L 120.457031 447.34375 Z M 120.460938 488.96875 "/>
<path style=" stroke:none;fill-rule:nonzero;fill:rgb(18.431373%,18.039216%,25.490196%);fill-opacity:1;" d="M 117.707031 485.445312 L 138.953125 485.445312 C 146.429688 485.445312 152.488281 491.507812 152.488281 498.988281 L 152.488281 499.429688 L 117.707031 499.429688 Z M 117.707031 485.445312 "/>
<path style=" stroke:none;fill-rule:nonzero;fill:rgb(100%,71.372549%,71.372549%);fill-opacity:1;" d="M 171.488281 488.96875 L 182.277344 488.96875 L 187.40625 447.34375 L 171.488281 447.34375 Z M 171.488281 488.96875 "/>
<path style=" stroke:none;fill-rule:nonzero;fill:rgb(18.431373%,18.039216%,25.490196%);fill-opacity:1;" d="M 168.738281 485.445312 L 189.980469 485.445312 C 197.457031 485.445312 203.519531 491.507812 203.519531 498.988281 L 203.519531 499.429688 L 168.738281 499.429688 Z M 168.738281 485.445312 "/>
<path style=" stroke:none;fill-rule:nonzero;fill:rgb(100%,71.372549%,71.372549%);fill-opacity:1;" d="M 191.621094 298.664062 C 193.464844 296.5625 194.285156 293.75 193.859375 290.984375 C 193.433594 288.21875 191.804688 285.785156 189.410156 284.335938 L 171.855469 200.011719 L 152.730469 207.550781 L 176 288.066406 C 173.785156 292.34375 175.121094 297.605469 179.105469 300.308594 C 183.089844 303.011719 188.46875 302.304688 191.621094 298.664062 Z M 191.621094 298.664062 "/>
<path style=" stroke:none;fill-rule:nonzero;fill:rgb(18.431373%,18.039216%,25.490196%);fill-opacity:1;" d="M 108.890625 282.429688 L 100.941406 290.503906 C 100.941406 290.503906 92.417969 321.753906 108.726562 360.300781 L 119.636719 472.050781 L 139.265625 473.53125 L 145.125 343.515625 L 172.164062 386.671875 L 167.441406 473.066406 L 189.140625 472.570312 L 198.945312 376.835938 L 172.164062 276.9375 Z M 108.890625 282.429688 "/>
<path style=" stroke:none;fill-rule:nonzero;fill:rgb(25.490196%,50.980392%,89.411765%);fill-opacity:1;" d="M 136.691406 293.304688 C 124.71875 293.222656 112.761719 292.433594 100.882812 290.9375 L 100.40625 290.875 L 112.253906 238.777344 L 108.171875 171.742188 L 146.699219 170.421875 C 153.921875 170.160156 160.179688 175.382812 161.222656 182.535156 L 169.105469 236.019531 L 176.398438 283.46875 L 176.300781 283.609375 C 171.058594 291.300781 153.535156 293.304688 136.691406 293.304688 Z M 136.691406 293.304688 "/>
<path style=" stroke:none;fill-rule:nonzero;fill:rgb(25.490196%,50.980392%,89.411765%);fill-opacity:1;" d="M 143.195312 181.507812 L 151.023438 171.691406 C 151.023438 171.691406 164.746094 162.300781 169.085938 182.421875 C 173.429688 202.539062 181.5 235.203125 181.5 235.203125 L 154.667969 237.375 Z M 143.195312 181.507812 "/>
<path style=" stroke:none;fill-rule:nonzero;fill:rgb(100%,71.372549%,71.372549%);fill-opacity:1;" d="M 69.015625 299.546875 C 67.171875 297.441406 66.351562 294.628906 66.777344 291.863281 C 67.203125 289.097656 68.832031 286.664062 71.226562 285.214844 L 88.78125 200.894531 L 107.90625 208.433594 L 84.636719 288.945312 C 86.851562 293.226562 85.515625 298.484375 81.53125 301.1875 C 77.546875 303.890625 72.171875 303.1875 69.015625 299.546875 Z M 69.015625 299.546875 "/>
<path style=" stroke:none;fill-rule:nonzero;fill:rgb(25.490196%,50.980392%,89.411765%);fill-opacity:1;" d="M 117.441406 182.386719 L 109.617188 172.570312 C 109.617188 172.570312 95.894531 163.179688 91.550781 183.300781 C 87.207031 203.421875 79.136719 236.082031 79.136719 236.082031 L 105.972656 238.257812 Z M 117.441406 182.386719 "/>
<path style=" stroke:none;fill-rule:nonzero;fill:rgb(18.431373%,18.039216%,25.490196%);fill-opacity:1;" d="M 150.429688 160.617188 L 99.402344 160.617188 C 97.214844 160.613281 95.445312 158.84375 95.441406 156.65625 L 95.441406 134.648438 C 95.441406 118.363281 108.636719 105.160156 124.917969 105.160156 C 141.195312 105.160156 154.390625 118.363281 154.390625 134.648438 L 154.390625 156.65625 C 154.386719 158.84375 152.617188 160.613281 150.429688 160.617188 Z M 150.429688 160.617188 "/>
<path style=" stroke:none;fill-rule:nonzero;fill:rgb(100%,71.372549%,71.372549%);fill-opacity:1;" d="M 152.160156 137.671875 C 152.160156 149.613281 142.484375 159.292969 130.550781 159.292969 C 118.617188 159.292969 108.941406 149.613281 108.941406 137.671875 C 108.941406 125.730469 118.617188 116.050781 130.550781 116.050781 C 142.484375 116.050781 152.160156 125.730469 152.160156 137.671875 Z M 152.160156 137.671875 "/>
<path style=" stroke:none;fill-rule:nonzero;fill:rgb(18.431373%,18.039216%,25.490196%);fill-opacity:1;" d="M 161.363281 136.851562 L 130.160156 136.851562 L 129.839844 132.367188 L 128.238281 136.851562 L 123.433594 136.851562 L 122.800781 127.964844 L 119.628906 136.851562 L 110.332031 136.851562 L 110.332031 136.410156 C 110.347656 123.53125 120.777344 113.097656 133.648438 113.082031 L 138.046875 113.082031 C 150.917969 113.097656 161.347656 123.53125 161.363281 136.410156 Z M 161.363281 136.851562 "/>
<path style=" stroke:none;fill-rule:nonzero;fill:rgb(18.431373%,18.039216%,25.490196%);fill-opacity:1;" d="M 129.90625 164.726562 C 129.667969 164.726562 129.433594 164.703125 129.203125 164.664062 L 106.355469 160.628906 L 106.355469 122.847656 L 131.507812 122.847656 L 130.882812 123.574219 C 122.222656 133.683594 128.746094 150.078125 133.410156 158.949219 C 134.109375 160.273438 133.992188 161.886719 133.101562 163.09375 C 132.359375 164.117188 131.171875 164.726562 129.90625 164.726562 Z M 129.90625 164.726562 "/>
<path style=" stroke:none;fill-rule:nonzero;fill:rgb(61.960784%,38.039216%,41.568627%);fill-opacity:1;" d="M 760.457031 488.96875 L 749.671875 488.96875 L 744.539062 447.34375 L 760.457031 447.34375 Z M 760.457031 488.96875 "/>
<path style=" stroke:none;fill-rule:nonzero;fill:rgb(18.431373%,18.039216%,25.490196%);fill-opacity:1;" d="M 763.207031 499.429688 L 728.425781 499.429688 L 728.425781 498.988281 C 728.425781 491.507812 734.488281 485.445312 741.964844 485.445312 L 763.207031 485.445312 Z M 763.207031 499.429688 "/>
<path style=" stroke:none;fill-rule:nonzero;fill:rgb(61.960784%,38.039216%,41.568627%);fill-opacity:1;" d="M 721.742188 488.96875 L 710.957031 488.96875 L 705.824219 447.34375 L 721.746094 447.34375 Z M 721.742188 488.96875 "/>
<path style=" stroke:none;fill-rule:nonzero;fill:rgb(18.431373%,18.039216%,25.490196%);fill-opacity:1;" d="M 724.496094 499.429688 L 689.714844 499.429688 L 689.714844 498.988281 C 689.714844 491.507812 695.777344 485.445312 703.25 485.445312 L 724.496094 485.445312 Z M 724.496094 499.429688 "/>
<path style=" stroke:none;fill-rule:nonzero;fill:rgb(61.960784%,38.039216%,41.568627%);fill-opacity:1;" d="M 596.117188 197.28125 C 597.863281 199.683594 600.582031 201.1875 603.542969 201.390625 C 606.5 201.59375 609.398438 200.476562 611.457031 198.335938 L 632.800781 206.671875 L 641.027344 194.933594 L 610.722656 183.578125 C 606.8125 180.289062 601.0625 180.445312 597.335938 183.941406 C 593.609375 187.4375 593.085938 193.167969 596.117188 197.28125 Z M 596.117188 197.28125 "/>
<path style=" stroke:none;fill-rule:nonzero;fill:rgb(18.431373%,18.039216%,25.490196%);fill-opacity:1;" d="M 721.609375 268.417969 L 693.507812 277.589844 L 702.894531 476.707031 L 724.582031 477.246094 L 735.679688 336.824219 L 738.203125 476.691406 L 765.019531 478.167969 L 774.902344 268.417969 Z M 721.609375 268.417969 "/>
<path style=" stroke:none;fill-rule:nonzero;fill:rgb(24.705882%,23.921569%,33.72549%);fill-opacity:1;" d="M 702.648438 151.042969 L 774.769531 135.367188 L 782.789062 197.5 L 776.113281 227.1875 L 778.789062 272.304688 C 778.789062 272.304688 721.757812 300.707031 693.507812 277.589844 C 693.507812 277.589844 716.214844 217.917969 703.050781 189.984375 Z M 702.648438 151.042969 "/>
<path style=" stroke:none;fill-rule:nonzero;fill:rgb(24.705882%,23.921569%,33.72549%);fill-opacity:1;" d="M 715.136719 159.832031 L 702.648438 151.042969 C 702.648438 151.042969 701.910156 150.023438 691.5 162.195312 C 681.089844 174.371094 659.976562 193.738281 659.976562 193.738281 L 624.78125 180.535156 L 618.371094 204.234375 L 659.273438 223.304688 L 717.179688 184.613281 Z M 715.136719 159.832031 "/>
<path style=" stroke:none;fill-rule:nonzero;fill:rgb(61.960784%,38.039216%,41.568627%);fill-opacity:1;" d="M 778.800781 295.597656 C 781.484375 294.328125 783.46875 291.9375 784.21875 289.066406 C 784.96875 286.191406 784.410156 283.136719 782.691406 280.714844 L 794.855469 261.289062 L 784.859375 251.011719 L 768.066406 278.6875 C 764.105469 281.917969 763.1875 287.601562 765.925781 291.914062 C 768.664062 296.226562 774.195312 297.808594 778.800781 295.597656 Z M 778.800781 295.597656 "/>
<path style=" stroke:none;fill-rule:nonzero;fill:rgb(24.705882%,23.921569%,33.72549%);fill-opacity:1;" d="M 763.519531 147.605469 L 774.769531 135.367188 C 774.769531 135.367188 787.304688 131 797.546875 153.566406 C 807.785156 176.132812 819.222656 221.90625 819.222656 221.90625 L 792.480469 273.445312 L 771.714844 264.160156 L 792.480469 221.542969 L 770.503906 189.984375 Z M 763.519531 147.605469 "/>
<path style=" stroke:none;fill-rule:nonzero;fill:rgb(61.960784%,38.039216%,41.568627%);fill-opacity:1;" d="M 753.757812 98.480469 C 759.960938 109.832031 755.792969 124.0625 744.445312 130.269531 C 733.101562 136.472656 718.875 132.300781 712.675781 120.953125 C 706.472656 109.601562 710.640625 95.367188 721.988281 89.164062 C 733.332031 82.957031 747.558594 87.128906 753.757812 98.480469 Z M 753.757812 98.480469 "/>
<path style=" stroke:none;fill-rule:nonzero;fill:rgb(18.431373%,18.039216%,25.490196%);fill-opacity:1;" d="M 755.234375 90.988281 L 756.371094 88.703125 L 750.660156 85.867188 C 750.660156 85.867188 744.359375 75.609375 732.960938 78.492188 C 721.558594 81.375 716.429688 83.097656 716.429688 83.097656 L 710.734375 85.964844 L 713.59375 88.8125 L 708.464844 90.539062 L 711.890625 92.242188 L 707.902344 94.535156 L 710.050781 106.285156 C 710.050781 106.285156 713.613281 97.371094 720.46875 100.777344 C 727.320312 104.1875 739.855469 99.019531 739.855469 99.019531 L 750.746094 120.105469 C 750.746094 120.105469 752.992188 112.714844 757 114.683594 C 757 114.683594 767.230469 98.378906 755.234375 90.988281 Z M 755.234375 90.988281 "/>
<path style=" stroke:none;fill-rule:nonzero;fill:rgb(79.215686%,79.215686%,79.215686%);fill-opacity:1;" d="M 263.949219 499.636719 L 0.878906 499.636719 C 0.394531 499.636719 0 499.242188 0 498.753906 C 0 498.269531 0.394531 497.875 0.878906 497.875 L 263.949219 497.875 C 264.433594 497.875 264.828125 498.269531 264.828125 498.753906 C 264.828125 499.242188 264.433594 499.636719 263.949219 499.636719 Z M 263.949219 499.636719 "/>
<path style=" stroke:none;fill-rule:nonzero;fill:rgb(79.215686%,79.215686%,79.215686%);fill-opacity:1;" d="M 819.121094 499.636719 L 617.640625 499.636719 C 617.152344 499.636719 616.757812 499.242188 616.757812 498.753906 C 616.757812 498.269531 617.152344 497.875 617.640625 497.875 L 819.121094 497.875 C 819.605469 497.875 820 498.269531 820 498.753906 C 820 499.242188 819.605469 499.636719 819.121094 499.636719 Z M 819.121094 499.636719 "/>
</g>
</svg>
